# File produced by Open Asset Import Library (http://www.assimp.sf.net)
# (assimp v3.1.187496374)

mtllib brick_stairs_single.obj.mtl

# 55 vertex positions
v  -3.73737 0.00664 -8.90804
v  -3.73737 6.6362 -8.90802
v  3.76263 0.002615 -8.90801
v  3.76263 6.6362 -8.90802
v  3.76263 0.004867 2.23418
v  3.76263 -3.82417 -8.90801
v  3.76263 -3.82192 2.23418
v  -3.73737 -3.82015 -8.90804
v  -3.73737 0.004867 2.23418
v  -3.73737 -3.82192 2.23418
v  -3.87268 6.6362 -6.73764
v  3.87268 6.6362 -6.73764
v  3.87268 6.6362 -8.90802
v  -3.84668 6.6362 -8.90802
v  3.87268 -3.13956 5.16627
v  3.87268 1.1845 2.22452
v  -3.87268 1.1845 2.22452
v  -3.87268 -3.13956 5.16627
v  -3.76263 -3.13956 5.16627
v  -3.73737 -3.13292 -8.90804
v  -3.76263 -3.13469 5.16367
v  3.76263 -3.13469 5.16367
v  3.76263 -3.13694 -8.90801
v  3.76265 6.6362 -8.90802
v  3.76263 -3.13956 5.16627
v  -3.87268 6.06233 -6.95049
v  -3.87268 1.1845 1.31709
v  3.87268 6.06233 -6.95049
v  3.87268 1.1845 1.34409
v  3.76263 5.53654 -6.88481
v  3.76263 5.53654 -5.09618
v  3.76263 4.50011 -5.09618
v  3.76263 3.32048 -8.90802
v  3.76263 4.50011 -3.33686
v  3.76263 3.32054 -3.33692
v  3.76263 6.57244 -6.88481
v  -3.73737 4.50011 -5.09618
v  -3.73737 5.53654 -5.09618
v  -3.73737 5.53654 -6.88481
v  -3.73737 6.57244 -6.88481
v  -3.73737 3.32054 -3.33692
v  -3.73737 4.50011 -3.33686
v  -3.73737 3.32048 -8.90802
v  3.76263 2.22093 -1.31377
v  3.76263 2.22093 0.47487
v  3.76263 1.1845 0.47487
v  3.76263 0.003768 -3.33694
v  3.76263 1.1845 2.23418
v  3.76263 3.25683 -1.31377
v  -3.73737 1.1845 0.47487
v  -3.73737 2.22093 0.47487
v  -3.73737 2.22093 -1.31377
v  -3.73737 3.25683 -1.31377
v  -3.73737 1.1845 2.23418
v  -3.73737 0.00578 -3.33696

# 33 UV coordinates
vt 0.251953 0.502102 0
vt 0.251953 0.748047 0
vt 0.498047 0.501953 0
vt 0.498047 0.748047 0
vt 0.251953 0.501953 0
vt 0.251953 0.669746 0
vt 0.498047 0.669746 0
vt 0.400705 0.637097 0
vt 0.320896 0.637097 0
vt 0.320896 0.614716 0
vt 0.498047 0.586161 0
vt 0.498047 0.666425 0
vt 0.251953 0.614716 0
vt 0.251953 0.586161 0
vt 0.400705 0.664881 0
vt 0.251953 0.672353 0
vt 0.498047 0.672353 0
vt 0.251953 0.669466 0
vt 0.251953 0.589801 0
vt 0.498047 0.669466 0
vt 0.498047 0.5898 0
vt 0.251953 0.588237 0
vt 0.498047 0.588237 0
vt 0.498047 0.585595 0
vt 0.251953 0.585595 0
vt 0.498047 0.58518 0
vt 0.498047 0.666421 0
vt 0.251953 0.58518 0
vt 0.251953 0.666421 0
vt 0.498047 0.666806 0
vt 0.251953 0.666806 0
vt 0.251953 0.66893 0
vt 0.498047 0.66893 0

# 13 vertex normals
vn 0 0 -1
vn 1 0 0
vn 0 0 1
vn -1 0 0
vn 0 1 0
vn 0 0.562492 0.826803
vn -0.999998 0 -0.001795
vn 0.999998 0.000962 0.001795
vn 0 0.861271 0.508146
vn -0.001767 0.861993 0.506916
vn -1 0 -0.000898
vn 0 0.999504 0.0315
vn 0 0.999505 0.031475

# Mesh 'brick_stair_group' with 10 faces
g brick_stair_group
usemtl JoinedMaterial_#1
f  1/1/1 2/2/1 3/3/1
f  3/3/1 2/2/1 4/4/1
f  3/5/2 5/3/2 6/6/2
f  6/6/2 5/3/2 7/7/2
f  1/5/1 3/3/1 8/6/1
f  8/6/1 3/3/1 6/7/1
f  5/5/3 9/3/3 7/6/3
f  7/6/3 9/3/3 10/7/3
f  9/5/4 1/3/4 10/6/4
f  10/6/4 1/3/4 8/7/4

# Mesh 'nurbsToPoly2' with 4 faces
g nurbsToPoly2
usemtl JoinedMaterial_#1
f  11//5 12//5 13//5
f  11//5 13//5 14//5
f  15//6 16//6 17//6
f  15//6 17//6 18//6

# Mesh 'polySurface4' with 2 faces
g polySurface4
usemtl JoinedMaterial_#1
f  19//7 2//7 20//7
f  19//8 20//8 21//8

# Mesh 'polySurface1' with 2 faces
g polySurface1
usemtl JoinedMaterial_#1
f  22//2 23//2 4//2
f  22//4 24//4 25//4

# Mesh 'nurbsToPoly4' with 4 faces
g nurbsToPoly4
usemtl JoinedMaterial_#1
f  26//9 27//9 28//9
f  28//10 27//10 29//10
f  27//5 17//5 16//5
f  27//5 16//5 29//5

# Mesh 'brick_stairs1' with 52 faces
g brick_stairs1
usemtl JoinedMaterial_#1
f  30/8/2 31/9/2 32/10/2
f  32/10/2 33/11/2 4/12/2
f  34/13/2 35/14/2 32/10/2
f  32/10/2 35/14/2 33/11/2
f  36/15/2 30/8/2 4/12/2
f  37/10/4 38/9/4 39/8/4
f  39/8/4 40/15/4 2/12/11
f  41/14/4 37/10/4 39/8/4
f  42/13/4 37/10/4 41/14/4
f  43/11/4 41/14/4 2/12/11
f  44/8/2 45/9/2 46/10/2
f  46/10/2 47/11/2 35/12/2
f  48/13/2 5/14/2 46/10/2
f  46/10/2 5/14/2 47/11/2
f  49/15/2 44/8/2 35/12/2
f  50/10/4 51/9/4 52/8/4
f  52/8/4 53/15/4 41/12/4
f  9/14/4 50/10/4 52/8/4
f  54/13/4 50/10/4 9/14/4
f  55/11/4 9/14/4 41/12/4
f  35/2/3 34/16/3 41/4/3
f  41/4/3 34/16/3 42/17/3
f  32/18/3 31/19/3 37/20/3
f  37/20/3 31/19/3 38/21/3
f  30/22/3 36/5/3 39/23/3
f  39/23/3 36/5/3 40/3/3
f  34/3/5 32/24/5 42/5/5
f  42/5/5 32/24/5 37/25/5
f  31/26/5 30/27/5 38/28/5
f  38/28/5 30/27/5 39/29/5
f  36/30/12 4/4/12 40/31/12
f  40/31/12 4/4/12 2/2/12
f  5/2/3 48/16/3 9/4/3
f  9/4/3 48/16/3 54/17/3
f  46/18/3 45/19/3 50/20/3
f  50/20/3 45/19/3 51/21/3
f  44/22/3 49/5/3 52/23/3
f  52/23/3 49/5/3 53/3/3
f  48/3/5 46/24/5 54/5/5
f  54/5/5 46/24/5 50/25/5
f  45/26/5 44/27/5 51/28/5
f  51/28/5 44/27/5 52/29/5
f  49/30/13 35/4/13 53/31/13
f  53/31/13 35/4/13 41/2/13
f  33/2/2 35/4/2 3/32/2
f  3/32/2 35/4/2 47/33/2
f  41/2/4 43/4/4 55/32/4
f  55/32/4 43/4/4 1/33/4
f  4/12/2 30/8/2 32/10/2
f  35/12/2 44/8/2 46/10/2
f  41/12/4 9/14/4 52/8/4
f  2/12/11 41/14/4 39/8/4

