# File produced by Open Asset Import Library (http://www.assimp.sf.net)
# (assimp v3.1.187496374)

mtllib brick_stairs_double.obj.mtl

# 30 vertex positions
v  -5.73063 -3.82015 -8.90804
v  -5.73063 -3.82192 2.23418
v  -5.73063 1.1845 2.23418
v  -5.73063 6.6362 -8.90802
v  5.76937 6.6362 -8.90802
v  5.76937 1.1845 2.23418
v  5.76937 -3.82192 2.23418
v  5.76937 -3.82417 -8.90801
v  5.76937 6.57244 -6.88481
v  -5.73063 6.57244 -6.88481
v  5.76937 1.1845 0.47487
v  5.76937 1.1845 -8.90801
v  -5.73063 1.1845 -8.90804
v  -5.73063 1.1845 0.47487
v  -5.73063 4.50011 -3.33686
v  -5.73063 4.50011 -5.09618
v  -5.73063 3.32054 -3.33692
v  -5.73063 3.25683 -1.31377
v  -5.73063 5.53654 -5.09618
v  -5.73063 5.53654 -6.88481
v  -5.73063 2.22093 -1.31377
v  -5.73063 2.22093 0.47487
v  5.76937 2.22093 0.47487
v  5.76937 2.22093 -1.31377
v  5.76937 3.32054 -3.33692
v  5.76937 3.25683 -1.31377
v  5.76937 4.50011 -3.33686
v  5.76937 4.50011 -5.09618
v  5.76937 5.53654 -6.88481
v  5.76937 5.53654 -5.09618

# 47 UV coordinates
vt 0.29081 0.748047 0
vt 0.498047 0.501953 0
vt 0.498047 0.748047 0
vt 0.251953 0.748047 0
vt 0.251896 0.501953 0
vt 0.251953 0.501953 0
vt 0.459192 0.748047 0
vt 0.49799 0.501953 0
vt 0.251979 0.748047 0
vt 0.498047 0.747764 0
vt 0.375013 0.651561 0
vt 0.336156 0.651564 0
vt 0.375008 0.598442 0
vt 0.419693 0.595569 0
vt 0.336158 0.698237 0
vt 0.296653 0.698241 0
vt 0.41969 0.54892 0
vt 0.459195 0.548917 0
vt 0.459192 0.501953 0
vt 0.251953 0.747764 0
vt 0.296656 0.744889 0
vt 0.29081 0.501953 0
vt 0.29081 0.549217 0
vt 0.330315 0.549217 0
vt 0.375 0.598735 0
vt 0.330315 0.595866 0
vt 0.374999 0.651854 0
vt 0.413856 0.651854 0
vt 0.453361 0.698527 0
vt 0.413856 0.698527 0
vt 0.453361 0.745176 0
vt 0.251953 0.672353 0
vt 0.498047 0.672353 0
vt 0.251953 0.588237 0
vt 0.498047 0.588237 0
vt 0.498047 0.585595 0
vt 0.251953 0.585595 0
vt 0.251953 0.669466 0
vt 0.251953 0.589801 0
vt 0.498047 0.669466 0
vt 0.498047 0.5898 0
vt 0.498047 0.58518 0
vt 0.498047 0.666421 0
vt 0.251953 0.58518 0
vt 0.251953 0.666421 0
vt 0.498047 0.666806 0
vt 0.251953 0.666806 0

# 12 vertex normals
vn -1 0 0
vn 1 0 0
vn 0 0.860949 0.508691
vn 0 0.999504 0.031498
vn 0 0 1
vn 0 0 -1
vn 0 0.649694 0.760196
vn 0 0.497816 0.867283
vn 0 0.96419 0.265212
vn 0 1 0
vn 0 0.999504 0.0315
vn 0 0.999505 0.031475

# Mesh 'polySurface4' with 2 faces
g polySurface4
usemtl JoinedMaterial_#1
f  1//1 2//1 3//1
f  1//1 3//1 4//1

# Mesh 'polySurface1' with 2 faces
g polySurface1
usemtl JoinedMaterial_#1
f  5//2 6//2 7//2
f  5//2 7//2 8//2

# Mesh 'nurbsToPoly4' with 4 faces
g nurbsToPoly4
usemtl JoinedMaterial_#1
f  6//3 9//3 10//3
f  6//3 10//3 3//3
f  10//4 9//4 5//4
f  10//4 5//4 4//4

# Mesh 'lod_high' with 32 faces
g lod_high
usemtl JoinedMaterial_#1
f  11/1/2 8/2/2 12/3/2
f  6/4/2 8/2/2 11/1/2
f  7/5/2 8/2/2 6/4/2
f  13/4/1 1/6/1 14/7/1
f  14/7/1 1/6/1 3/3/1
f  3/3/1 1/6/1 2/8/1
f  2/5/5 7/8/5 3/9/5
f  3/9/5 7/8/5 6/3/5
f  13/2/6 4/10/6 12/6/6
f  12/6/6 4/10/6 5/4/6
f  15/11/1 16/12/1 17/13/1
f  17/13/1 16/12/1 13/6/1
f  17/13/1 13/6/1 18/14/1
f  16/12/1 19/15/1 13/6/1
f  13/6/1 19/15/1 20/16/1
f  18/14/1 13/6/1 21/17/1
f  21/17/1 13/6/1 22/18/1
f  22/18/1 13/6/1 14/19/1
f  13/6/1 20/16/1 4/20/1
f  4/20/1 20/16/1 10/21/1
f  13/3/6 12/4/6 1/2/6
f  1/2/6 12/4/6 8/6/6
f  11/22/2 12/2/2 23/23/2
f  23/23/2 12/2/2 24/24/2
f  12/2/2 25/25/2 24/24/2
f  24/24/2 25/25/2 26/26/2
f  12/2/2 27/27/2 25/25/2
f  28/28/2 27/27/2 12/2/2
f  12/2/2 29/29/2 28/28/2
f  28/28/2 29/29/2 30/30/2
f  12/2/2 9/31/2 29/29/2
f  5/3/2 9/31/2 12/2/2

# Mesh 'brick_stairs' with 22 faces
g brick_stairs
usemtl JoinedMaterial_#1
f  25/4/5 27/32/7 17/3/5
f  17/3/5 27/32/7 15/33/7
f  29/34/5 9/6/8 20/35/5
f  20/35/5 9/6/8 10/2/8
f  6/2/9 11/36/10 3/6/9
f  3/6/9 11/36/10 14/37/10
f  28/38/5 30/39/5 16/40/5
f  16/40/5 30/39/5 19/41/5
f  27/2/10 28/36/10 15/6/10
f  15/6/10 28/36/10 16/37/10
f  30/42/10 29/43/10 19/44/10
f  19/44/10 29/43/10 20/45/10
f  9/46/11 5/3/11 10/47/11
f  10/47/11 5/3/11 4/4/11
f  11/38/5 23/39/5 14/40/5
f  14/40/5 23/39/5 22/41/5
f  24/34/5 26/6/5 21/35/5
f  21/35/5 26/6/5 18/2/5
f  23/42/10 24/43/10 22/44/10
f  22/44/10 24/43/10 21/45/10
f  26/46/12 25/3/12 18/47/12
f  18/47/12 25/3/12 17/4/12

