# File produced by Open Asset Import Library (http://www.assimp.sf.net)
# (assimp v3.1.187496374)

mtllib brick_stairs_quadruple.obj.mtl

# 79 vertex positions
v  -11.4613 4.50011 -5.09618
v  -11.4613 5.53654 -5.09618
v  -11.4613 5.53654 -6.88481
v  -11.4613 6.57244 -6.88481
v  -11.4613 6.6362 -8.90802
v  -11.4613 3.32054 -3.33692
v  -11.4613 4.50011 -3.33686
v  -11.4613 3.32048 -8.90802
v  -11.4613 1.1845 0.47487
v  -11.4613 2.22093 0.47487
v  -11.4613 2.22093 -1.31377
v  -11.4613 3.25683 -1.31377
v  -11.4613 0.004867 2.23418
v  -11.4613 1.1845 2.23418
v  -11.4613 0.00578 -3.33696
v  11.5276 5.53654 -6.88481
v  11.5276 5.53654 -5.09618
v  11.5276 4.50011 -5.09618
v  11.5276 3.32048 -8.90802
v  11.5276 6.6362 -8.90802
v  11.5276 4.50011 -3.33686
v  11.5276 3.32054 -3.33692
v  11.5276 6.57244 -6.88481
v  11.5276 2.22093 -1.31377
v  11.5276 2.22093 0.47487
v  11.5276 1.1845 0.47487
v  11.5276 0.00578 -3.33696
v  11.5276 1.1845 2.23418
v  11.5276 0.004867 2.23418
v  11.5276 3.25683 -1.31377
v  -11.4613 0.00664 -8.90804
v  -11.4613 -3.82192 2.23418
v  -11.4613 -3.82015 -8.90804
v  11.5276 0.00664 -8.90804
v  11.5276 -3.82192 2.23418
v  11.5276 -3.82015 -8.90804
v  0.079703 0.00462 -8.90802
v  0.079703 6.6362 -8.90802
v  0.079703 -3.82216 -8.90802
v  0.079703 4.50011 -3.33686
v  0.079703 3.32054 -3.33692
v  0.079703 5.53654 -5.09618
v  0.079703 4.50011 -5.09618
v  0.079703 6.57244 -6.88481
v  0.079703 5.53654 -6.88481
v  0.079703 1.1845 2.23418
v  0.079703 0.004867 2.23418
v  0.079703 2.22093 0.47487
v  0.079703 1.1845 0.47487
v  0.079703 3.25683 -1.31377
v  0.079703 2.22093 -1.31377
v  0.079703 -3.82192 2.23418
v  -11.7207 6.57244 -6.60534
v  11.7207 6.57244 -6.60534
v  11.7207 6.6362 -8.90802
v  -11.642 6.6362 -8.90802
v  11.7207 -3.13956 5.16627
v  11.7207 1.1845 2.22452
v  -11.7207 1.1845 2.22452
v  -11.7207 -3.13956 5.16627
v  -11.5387 -3.13956 5.16627
v  -11.4613 -3.13292 -8.90804
v  -11.5387 -3.13469 5.16367
v  11.5387 -3.13469 5.16367
v  11.5387 -3.13694 -8.90801
v  11.5387 6.6362 -8.90802
v  11.54 6.6362 -8.90802
v  11.5387 -3.13956 5.16627
v  -11.7207 5.95725 -6.88481
v  -11.7207 1.1845 1.32283
v  11.7207 5.95725 -6.88481
v  11.7207 1.1845 1.13641
v  -11.7207 1.1845 2.23418
v  11.7207 1.1845 2.23418
v  11.8004 7.97671 -8.92546
v  -11.641 7.97665 -8.9254
v  11.8004 7.97674 -8.92546
v  11.8004 6.48109 -18.6348
v  -11.641 6.481 -18.6347

# 43 UV coordinates
vt 0.320896 0.614716 0
vt 0.320896 0.637097 0
vt 0.400705 0.637097 0
vt 0.400705 0.664881 0
vt 0.498047 0.666425 0
vt 0.251953 0.586161 0
vt 0.251953 0.614716 0
vt 0.498047 0.586161 0
vt 0.251953 0.748047 0
vt 0.498047 0.748047 0
vt 0.251953 0.66893 0
vt 0.498047 0.66893 0
vt 0.28903 0.501953 0
vt 0.498047 0.501953 0
vt 0.28903 0.669746 0
vt 0.498047 0.669746 0
vt 0.251953 0.501953 0
vt 0.251953 0.669746 0
vt 0.251953 0.502102 0
vt 0.455177 0.502027 0
vt 0.455177 0.748047 0
vt 0.414624 0.501953 0
vt 0.414624 0.669746 0
vt 0.498047 0.672353 0
vt 0.301775 0.672353 0
vt 0.498047 0.5898 0
vt 0.498047 0.669466 0
vt 0.301775 0.5898 0
vt 0.301775 0.669466 0
vt 0.498047 0.588237 0
vt 0.301775 0.501953 0
vt 0.301775 0.588237 0
vt 0.301775 0.669746 0
vt 0.251953 0.585595 0
vt 0.454018 0.585595 0
vt 0.454018 0.501953 0
vt 0.251953 0.666421 0
vt 0.251953 0.58518 0
vt 0.454018 0.666421 0
vt 0.454018 0.58518 0
vt 0.251953 0.666806 0
vt 0.454018 0.748047 0
vt 0.454018 0.666806 0

# 18 vertex normals
vn -1 -0 -0
vn -0.999996 0 -0.002753
vn 1 0 0
vn 0 0 -1
vn 0 0 1
vn 0 0.999617 0.027679
vn 0 0.562492 0.826803
vn -0.999985 -0 -0.005499
vn 0.999981 0.002871 0.005501
vn -1 0.000156 0
vn 0 0.864468 0.502689
vn 0.004066 0.85937 0.511338
vn 0 1 0
vn 0 0.710788 0.703407
vn 0 0.988342 -0.152247
vn 0 0.999504 0.0315
vn 0 0.999505 0.031474
vn 0 0.999505 0.031475

# Mesh 'brick_stair_group' with 68 faces
g brick_stair_group
usemtl JoinedMaterial_#1
f  1/1/1 2/2/1 3/3/1
f  3/3/1 4/4/1 5/5/2
f  6/6/1 1/1/1 3/3/1
f  7/7/1 1/1/1 6/6/1
f  8/8/1 6/6/1 5/5/2
f  9/1/1 10/2/1 11/3/1
f  11/3/1 12/4/1 6/5/1
f  13/6/1 9/1/1 11/3/1
f  14/7/1 9/1/1 13/6/1
f  15/8/1 13/6/1 6/5/1
f  16/3/3 17/2/3 18/1/3
f  18/1/3 19/8/3 20/5/3
f  21/7/3 22/6/3 18/1/3
f  18/1/3 22/6/3 19/8/3
f  23/4/3 16/3/3 20/5/3
f  24/3/3 25/2/3 26/1/3
f  26/1/3 27/8/3 22/5/3
f  28/7/3 29/6/3 26/1/3
f  26/1/3 29/6/3 27/8/3
f  30/4/3 24/3/3 22/5/3
f  6/9/1 8/10/1 15/11/1
f  15/11/1 8/10/1 31/12/1
f  13/13/1 31/14/1 32/15/1
f  32/15/1 31/14/1 33/16/1
f  22/9/3 27/11/3 19/10/3
f  19/10/3 27/11/3 34/12/3
f  29/17/3 35/18/3 34/14/3
f  34/14/3 35/18/3 36/16/3
f  6/5/1 13/6/1 11/3/1
f  20/5/3 16/3/3 18/1/3
f  22/5/3 24/3/3 26/1/3
f  5/5/2 6/6/1 3/3/1
f  31/19/4 5/9/4 37/20/4
f  37/20/4 5/9/4 38/21/4
f  37/20/4 38/21/4 34/19/4
f  34/19/4 38/21/4 20/9/4
f  34/17/4 36/18/4 37/22/4
f  37/22/4 36/18/4 39/23/4
f  37/22/4 39/23/4 31/17/4
f  31/17/4 39/23/4 33/18/4
f  7/24/5 6/10/5 40/25/5
f  40/25/5 6/10/5 41/9/5
f  40/25/5 41/9/5 21/24/5
f  21/24/5 41/9/5 22/10/5
f  2/26/5 1/27/5 42/28/5
f  42/28/5 1/27/5 43/29/5
f  42/28/5 43/29/5 17/26/5
f  17/26/5 43/29/5 18/27/5
f  4/14/5 3/30/5 44/31/5
f  44/31/5 3/30/5 45/32/5
f  44/31/5 45/32/5 23/14/5
f  23/14/5 45/32/5 16/30/5
f  14/24/5 13/10/5 46/25/5
f  46/25/5 13/10/5 47/9/5
f  46/25/5 47/9/5 28/24/5
f  28/24/5 47/9/5 29/10/5
f  10/26/5 9/27/5 48/28/5
f  48/28/5 9/27/5 49/29/5
f  48/28/5 49/29/5 25/26/5
f  25/26/5 49/29/5 26/27/5
f  12/14/5 11/30/5 50/31/5
f  50/31/5 11/30/5 51/32/5
f  50/31/5 51/32/5 30/14/5
f  30/14/5 51/32/5 24/30/5
f  13/14/5 32/16/5 47/31/5
f  47/31/5 32/16/5 52/33/5
f  47/31/5 52/33/5 29/14/5
f  29/14/5 52/33/5 35/16/5

# Mesh 'nurbsToPoly2' with 4 faces
g nurbsToPoly2
usemtl JoinedMaterial_#1
f  53//6 54//6 55//6
f  53//6 55//6 56//6
f  57//7 58//7 59//7
f  57//7 59//7 60//7

# Mesh 'polySurface4' with 2 faces
g polySurface4
usemtl JoinedMaterial_#1
f  61//8 5//8 62//8
f  61//9 62//9 63//9

# Mesh 'polySurface1' with 2 faces
g polySurface1
usemtl JoinedMaterial_#1
f  64//3 65//3 66//3
f  64//10 67//10 68//10

# Mesh 'nurbsToPoly3' with 4 faces
g nurbsToPoly3
usemtl JoinedMaterial_#1
f  69//11 70//11 71//11
f  71//12 70//12 72//12
f  70//13 73//13 74//13
f  70//13 74//13 72//13

# Mesh 'nurbsToPoly4' with 4 faces
g nurbsToPoly4
usemtl JoinedMaterial_#1
f  69//14 71//14 75//14
f  69//14 75//14 76//14
f  76//15 77//15 78//15
f  76//15 78//15 79//15

# Mesh 'polySurface10_DUP' with 24 faces
g polySurface10_DUP
usemtl JoinedMaterial_#1
f  1/34/13 7/17/13 43/35/13
f  43/35/13 7/17/13 40/36/13
f  43/35/13 40/36/13 18/34/13
f  18/34/13 40/36/13 21/17/13
f  9/34/13 14/17/13 49/35/13
f  49/35/13 14/17/13 46/36/13
f  49/35/13 46/36/13 26/34/13
f  26/34/13 46/36/13 28/17/13
f  3/37/13 2/38/13 45/39/13
f  45/39/13 2/38/13 42/40/13
f  45/39/13 42/40/13 16/37/13
f  16/37/13 42/40/13 17/38/13
f  5/9/16 4/41/16 38/42/16
f  38/42/16 4/41/16 44/43/16
f  38/42/16 44/43/16 20/9/16
f  20/9/16 44/43/16 23/41/16
f  11/37/13 10/38/13 51/39/13
f  51/39/13 10/38/13 48/40/13
f  51/39/13 48/40/13 24/37/13
f  24/37/13 48/40/13 25/38/13
f  6/9/17 12/41/17 41/42/17
f  41/42/17 12/41/17 50/43/17
f  41/42/17 50/43/17 22/9/18
f  22/9/18 50/43/17 30/41/18

