# File produced by Open Asset Import Library (http://www.assimp.sf.net)
# (assimp v3.1.187496374)

mtllib fort_stair_med.obj.mtl

# 342 vertex positions
v  14.1971 -38.7728 -83.8073
v  18.1971 -42.7645 -83.8073
v  14.1971 -42.7645 -83.8073
v  18.1971 -38.7728 -83.8073
v  18.1971 2.47512 1.79685
v  18.1971 -42.7645 1.96756
v  18.1971 2.47512 -3.29349
v  -14.3571 -38.7728 -83.8073
v  -18.1971 -42.7645 -83.8073
v  -18.1971 -38.7728 -83.8073
v  -14.3571 -42.7645 -83.8073
v  -18.1971 -42.7645 1.96756
v  -18.1971 2.47512 1.79685
v  -18.1971 2.47512 -3.29349
v  14.1971 2.47512 1.79685
v  14.1971 2.47512 -3.29349
v  -14.3571 2.47512 1.79685
v  -14.3571 2.47512 -3.29349
v  -15.5772 -0.02932 1.25598
v  15.7412 -0.02932 1.25598
v  15.7413 -0.02932 -2.07983
v  -15.5772 -0.02932 -2.07983
v  15.7413 -40.8625 -83.8073
v  -15.5772 -40.8625 -83.8073
v  -14.1971 2.31774 -2.59869
v  -14.1971 2.35055 1.79685
v  -14.1971 -1.34557 -0.099475
v  -14.1971 -42.7645 -83.8073
v  -14.1971 -38.7556 -83.8073
v  -18.1971 -42.7645 1.79684
v  -18.1971 2.36221 1.79683
v  -18.1971 2.33022 -2.62447
v  14.1971 2.31774 -2.59869
v  14.1971 -1.34557 -0.099475
v  14.1971 2.35055 1.79685
v  14.1971 -38.7556 -83.8073
v  18.1971 -42.7645 1.79684
v  18.1971 2.33022 -2.62447
v  18.1971 2.36221 1.79683
v  14.3571 -2.52931 -5.41564
v  14.3571 -2.52931 -7.08364
v  0 -2.52931 -5.41564
v  0 -2.52931 -7.08364
v  -14.3571 -2.52931 -5.41564
v  -14.3571 -2.52931 -7.08364
v  14.3571 -3.36264 -7.08364
v  0 -3.36264 -7.08364
v  -14.3571 -3.36264 -7.08364
v  14.3571 -3.36264 -8.75146
v  0 -3.36264 -8.75146
v  -14.3571 -3.36264 -8.75146
v  14.3571 -4.19597 -8.75146
v  0 -4.19597 -8.75146
v  -14.3571 -4.19597 -8.75146
v  14.3571 -0.86265 -2.07983
v  14.3571 -0.86265 -3.74783
v  0 -0.86265 -2.07983
v  0 -0.86265 -3.74783
v  -14.3571 -0.86265 -2.07983
v  -14.3571 -0.86265 -3.74783
v  14.3571 -1.69598 -3.74783
v  0 -1.69598 -3.74783
v  -14.3571 -1.69598 -3.74783
v  14.3571 -1.69598 -5.41564
v  0 -1.69598 -5.41564
v  -14.3571 -1.69598 -5.41564
v  14.1971 -0.02932 1.25598
v  14.3571 -0.02932 -2.07983
v  0 -0.02932 1.25598
v  0 -0.02932 -2.07983
v  -14.1971 -0.02932 1.25598
v  -14.3571 -0.02932 -2.07983
v  14.3571 -9.19595 -18.7589
v  14.3571 -9.19595 -20.4269
v  0 -9.19595 -18.7589
v  0 -9.19595 -20.4269
v  -14.3571 -9.19595 -18.7589
v  -14.3571 -9.19595 -20.4269
v  14.3571 -10.0293 -20.4269
v  0 -10.0293 -20.4269
v  -14.3571 -10.0293 -20.4269
v  14.3571 -10.0293 -22.0947
v  0 -10.0293 -22.0947
v  -14.3571 -10.0293 -22.0947
v  14.3571 -10.8626 -22.0947
v  0 -10.8626 -22.0947
v  -14.3571 -10.8626 -22.0947
v  14.3571 -7.52929 -15.4231
v  14.3571 -7.52929 -17.0911
v  0 -7.52929 -15.4231
v  0 -7.52929 -17.0911
v  -14.3571 -7.52929 -15.4231
v  -14.3571 -7.52929 -17.0911
v  14.3571 -8.36262 -17.0911
v  0 -8.36262 -17.0911
v  -14.3571 -8.36262 -17.0911
v  14.3571 -8.36262 -18.7589
v  0 -8.36262 -18.7589
v  -14.3571 -8.36262 -18.7589
v  14.3571 -5.86263 -12.0873
v  14.3571 -5.86263 -13.7553
v  0 -5.86263 -12.0873
v  0 -5.86263 -13.7553
v  -14.3571 -5.86263 -12.0873
v  -14.3571 -5.86263 -13.7553
v  14.3571 -6.69596 -13.7553
v  0 -6.69596 -13.7553
v  -14.3571 -6.69596 -13.7553
v  14.3571 -6.69596 -15.4231
v  0 -6.69596 -15.4231
v  -14.3571 -6.69596 -15.4231
v  14.3571 -4.19597 -10.4195
v  0 -4.19597 -10.4195
v  -14.3571 -4.19597 -10.4195
v  14.3571 -5.0293 -10.4195
v  0 -5.0293 -10.4195
v  -14.3571 -5.0293 -10.4195
v  14.3571 -5.0293 -12.0873
v  0 -5.0293 -12.0873
v  -14.3571 -5.0293 -12.0873
v  14.3571 -15.8626 -32.1021
v  14.3571 -15.8626 -33.7701
v  0 -15.8626 -32.1021
v  0 -15.8626 -33.7701
v  -14.3571 -15.8626 -32.1021
v  -14.3571 -15.8626 -33.7701
v  14.3571 -16.6959 -33.7701
v  0 -16.6959 -33.7701
v  -14.3571 -16.6959 -33.7701
v  14.3571 -16.6959 -35.4379
v  0 -16.6959 -35.4379
v  -14.3571 -16.6959 -35.4379
v  14.3571 -17.5293 -35.4379
v  0 -17.5293 -35.4379
v  -14.3571 -17.5293 -35.4379
v  14.3571 -14.1959 -28.7663
v  14.3571 -14.1959 -30.4343
v  0 -14.1959 -28.7663
v  0 -14.1959 -30.4343
v  -14.3571 -14.1959 -28.7663
v  -14.3571 -14.1959 -30.4343
v  14.3571 -15.0293 -30.4343
v  0 -15.0293 -30.4343
v  -14.3571 -15.0293 -30.4343
v  14.3571 -15.0293 -32.1021
v  0 -15.0293 -32.1021
v  -14.3571 -15.0293 -32.1021
v  14.3571 -12.5293 -25.4305
v  14.3571 -12.5293 -27.0985
v  0 -12.5293 -25.4305
v  0 -12.5293 -27.0985
v  -14.3571 -12.5293 -25.4305
v  -14.3571 -12.5293 -27.0985
v  14.3571 -13.3626 -27.0985
v  0 -13.3626 -27.0985
v  -14.3571 -13.3626 -27.0985
v  14.3571 -13.3626 -28.7663
v  0 -13.3626 -28.7663
v  -14.3571 -13.3626 -28.7663
v  14.3571 -10.8626 -23.7627
v  0 -10.8626 -23.7627
v  -14.3571 -10.8626 -23.7627
v  14.3571 -11.6959 -23.7627
v  0 -11.6959 -23.7627
v  -14.3571 -11.6959 -23.7627
v  14.3571 -11.6959 -25.4305
v  0 -11.6959 -25.4305
v  -14.3571 -11.6959 -25.4305
v  14.3571 -22.5292 -45.4454
v  14.3571 -22.5292 -47.1134
v  0 -22.5292 -45.4454
v  0 -22.5292 -47.1134
v  -14.3571 -22.5292 -45.4454
v  -14.3571 -22.5292 -47.1134
v  14.3571 -23.3626 -47.1134
v  0 -23.3626 -47.1134
v  -14.3571 -23.3626 -47.1134
v  14.3571 -23.3626 -48.7812
v  0 -23.3626 -48.7812
v  -14.3571 -23.3626 -48.7812
v  14.3571 -24.1959 -48.7812
v  0 -24.1959 -48.7812
v  -14.3571 -24.1959 -48.7812
v  14.3571 -20.8626 -42.1096
v  14.3571 -20.8626 -43.7776
v  0 -20.8626 -42.1096
v  0 -20.8626 -43.7776
v  -14.3571 -20.8626 -42.1096
v  -14.3571 -20.8626 -43.7776
v  14.3571 -21.6959 -43.7776
v  0 -21.6959 -43.7776
v  -14.3571 -21.6959 -43.7776
v  14.3571 -21.6959 -45.4454
v  0 -21.6959 -45.4454
v  -14.3571 -21.6959 -45.4454
v  14.3571 -19.1959 -38.7738
v  14.3571 -19.1959 -40.4418
v  0 -19.1959 -38.7738
v  0 -19.1959 -40.4418
v  -14.3571 -19.1959 -38.7738
v  -14.3571 -19.1959 -40.4418
v  14.3571 -20.0292 -40.4418
v  0 -20.0292 -40.4418
v  -14.3571 -20.0292 -40.4418
v  14.3571 -20.0292 -42.1096
v  0 -20.0292 -42.1096
v  -14.3571 -20.0292 -42.1096
v  14.3571 -17.5293 -37.1059
v  0 -17.5293 -37.1059
v  -14.3571 -17.5293 -37.1059
v  14.3571 -18.3626 -37.1059
v  0 -18.3626 -37.1059
v  -14.3571 -18.3626 -37.1059
v  14.3571 -18.3626 -38.7738
v  0 -18.3626 -38.7738
v  -14.3571 -18.3626 -38.7738
v  14.3571 -29.1959 -58.7886
v  14.3571 -29.1959 -60.4566
v  0 -29.1959 -58.7886
v  0 -29.1959 -60.4566
v  -14.3571 -29.1959 -58.7886
v  -14.3571 -29.1959 -60.4566
v  14.3571 -30.0292 -60.4566
v  0 -30.0292 -60.4566
v  -14.3571 -30.0292 -60.4566
v  14.3571 -30.0292 -62.1244
v  0 -30.0292 -62.1244
v  -14.3571 -30.0292 -62.1244
v  14.3571 -30.8625 -62.1244
v  0 -30.8625 -62.1244
v  -14.3571 -30.8625 -62.1244
v  14.3571 -27.5292 -55.4528
v  14.3571 -27.5292 -57.1208
v  0 -27.5292 -55.4528
v  0 -27.5292 -57.1208
v  -14.3571 -27.5292 -55.4528
v  -14.3571 -27.5292 -57.1208
v  14.3571 -28.3625 -57.1208
v  0 -28.3625 -57.1208
v  -14.3571 -28.3625 -57.1208
v  14.3571 -28.3625 -58.7886
v  0 -28.3625 -58.7886
v  -14.3571 -28.3625 -58.7886
v  14.3571 -25.8626 -52.117
v  14.3571 -25.8626 -53.785
v  0 -25.8626 -52.117
v  0 -25.8626 -53.785
v  -14.3571 -25.8626 -52.117
v  -14.3571 -25.8626 -53.785
v  14.3571 -26.6959 -53.785
v  0 -26.6959 -53.785
v  -14.3571 -26.6959 -53.785
v  14.3571 -26.6959 -55.4528
v  0 -26.6959 -55.4528
v  -14.3571 -26.6959 -55.4528
v  14.3571 -24.1959 -50.4492
v  0 -24.1959 -50.4492
v  -14.3571 -24.1959 -50.4492
v  14.3571 -25.0292 -50.4492
v  0 -25.0292 -50.4492
v  -14.3571 -25.0292 -50.4492
v  14.3571 -25.0292 -52.117
v  0 -25.0292 -52.117
v  -14.3571 -25.0292 -52.117
v  14.3571 -35.8625 -72.1319
v  14.3571 -35.8625 -73.7999
v  0 -35.8625 -72.1319
v  0 -35.8625 -73.7999
v  -14.3571 -35.8625 -72.1319
v  -14.3571 -35.8625 -73.7999
v  14.3571 -36.6958 -73.7999
v  0 -36.6958 -73.7999
v  -14.3571 -36.6958 -73.7999
v  14.3571 -36.6958 -75.4677
v  0 -36.6958 -75.4677
v  -14.3571 -36.6958 -75.4677
v  14.3571 -37.5292 -75.4677
v  0 -37.5292 -75.4677
v  -14.3571 -37.5292 -75.4677
v  14.3571 -34.1959 -68.7961
v  14.3571 -34.1959 -70.4641
v  0 -34.1959 -68.7961
v  0 -34.1959 -70.4641
v  -14.3571 -34.1959 -68.7961
v  -14.3571 -34.1959 -70.4641
v  14.3571 -35.0292 -70.4641
v  0 -35.0292 -70.4641
v  -14.3571 -35.0292 -70.4641
v  14.3571 -35.0292 -72.1319
v  0 -35.0292 -72.1319
v  -14.3571 -35.0292 -72.1319
v  14.3571 -32.5292 -65.4603
v  14.3571 -32.5292 -67.1283
v  0 -32.5292 -65.4603
v  0 -32.5292 -67.1283
v  -14.3571 -32.5292 -65.4603
v  -14.3571 -32.5292 -67.1283
v  14.3571 -33.3625 -67.1283
v  0 -33.3625 -67.1283
v  -14.3571 -33.3625 -67.1283
v  14.3571 -33.3625 -68.7961
v  0 -33.3625 -68.7961
v  -14.3571 -33.3625 -68.7961
v  14.3571 -30.8625 -63.7924
v  0 -30.8625 -63.7924
v  -14.3571 -30.8625 -63.7924
v  14.3571 -31.6959 -63.7924
v  0 -31.6959 -63.7924
v  -14.3571 -31.6959 -63.7924
v  14.3571 -31.6959 -65.4603
v  0 -31.6959 -65.4603
v  -14.3571 -31.6959 -65.4603
v  14.3571 -40.8625 -82.1393
v  14.3571 -40.8625 -83.7069
v  0 -40.8625 -82.1393
v  0 -40.8625 -83.7069
v  -14.3571 -40.8625 -82.1393
v  -14.3571 -40.8625 -83.7069
v  14.3571 -42.7645 -83.7069
v  0 -42.7645 -83.7069
v  -14.3571 -42.7645 -83.7069
v  14.3571 -39.1958 -78.8035
v  14.3571 -39.1958 -80.4715
v  0 -39.1958 -78.8035
v  0 -39.1958 -80.4715
v  -14.3571 -39.1958 -78.8035
v  -14.3571 -39.1958 -80.4715
v  14.3571 -40.0292 -80.4715
v  0 -40.0292 -80.4715
v  -14.3571 -40.0292 -80.4715
v  14.3571 -40.0292 -82.1393
v  0 -40.0292 -82.1393
v  -14.3571 -40.0292 -82.1393
v  14.3571 -37.5292 -77.1357
v  0 -37.5292 -77.1357
v  -14.3571 -37.5292 -77.1357
v  14.3571 -38.3625 -77.1357
v  0 -38.3625 -77.1357
v  -14.3571 -38.3625 -77.1357
v  14.3571 -38.3625 -78.8035
v  0 -38.3625 -78.8035
v  -14.3571 -38.3625 -78.8035

# 44 UV coordinates
vt -0.840599 1.93 0
vt -1 1.93 0
vt -0.922228 1.79 0
vt 1.84 0.391692 0
vt 1.84 0.529394 0
vt -1 0.391692 0
vt 0.468945 -0.767156 0
vt 0.468945 -0.607569 0
vt 0.380234 -0.767156 0
vt 0.380234 -0.606265 0
vt 0.380234 2.83 0
vt 0.468945 2.83 0
vt 0.468945 3 0
vt 0.380234 3 0
vt -1 1 0
vt -1 0.75 0
vt 0 1 0
vt 0 0.75 0
vt 1 1 0
vt 1 0.75 0
vt -1 0.5 0
vt 0 0.5 0
vt 1 0.5 0
vt -1 0.25 0
vt 0 0.25 0
vt 1 0.25 0
vt -1 0 0
vt 0 0 0
vt 1 0 0
vt -0.688332 1 0
vt -0.688332 0.75 0
vt 0.311667 1 0
vt 0.311667 0.75 0
vt 1.31 1 0
vt 1.31 0.75 0
vt -0.688332 0.5 0
vt 0.311667 0.5 0
vt 1.31 0.5 0
vt -0.688332 0.25 0
vt 0.311667 0.25 0
vt 1.31 0.25 0
vt -0.688332 0 0
vt 0.311667 0 0
vt 1.31 0 0

# 16 vertex normals
vn 0 0 -1
vn 1 0 0
vn -1 0 0
vn 0 1 0
vn 0 0.890002 -0.455956
vn 0 0.894561 -0.446946
vn 0.000541 0.52368 -0.851915
vn 0.002035 0.971831 -0.23567
vn 0.003041 0.999968 -0.007349
vn -0.000541 0.52368 -0.851915
vn -0.002035 0.971831 -0.23567
vn -0.003041 0.999968 -0.007349
vn 0 0.982988 -0.183672
vn 0 0.525649 -0.850701
vn 0 0.973227 -0.229847
vn 0 0.417345 -0.908748

# Mesh 'collision_wall' with 10 faces
g collision_wall
usemtl material2_0
f  1//1 2//1 3//1
f  1//1 4//1 2//1
f  5//2 6//2 2//2
f  5//2 2//2 4//2
f  4//2 7//2 5//2
f  8//1 9//1 10//1
f  8//1 11//1 9//1
f  9//3 12//3 13//3
f  9//3 13//3 14//3
f  14//3 10//3 9//3

# Mesh 'collision_floor' with 8 faces
g collision_floor
usemtl material2_0
f  15//4 7//4 16//4
f  15//4 5//4 7//4
f  16//5 4//5 1//5
f  16//5 7//5 4//5
f  17//4 14//4 13//4
f  17//4 18//4 14//4
f  18//5 10//5 14//5
f  18//5 8//5 10//5

# Mesh 'collision_zone_fortStairs' with 4 faces
g collision_zone_fortStairs
usemtl material2_0
f  19//4 20//4 21//4
f  19//4 21//4 22//4
f  22//6 21//6 23//6
f  22//6 23//6 24//6

# Mesh 'lod_high' with 24 faces
g lod_high
usemtl material2_0
f  25/1/2 26/2/2 27/3/2
f  28/4/2 29/5/2 27/3/2
f  27/3/2 29/5/2 25/1/2
f  30/6/3 31/2/3 32/1/3
f  10/5/3 30/6/3 32/1/3
f  9/4/3 30/6/3 10/5/3
f  9/7/1 10/8/7 28/9/1
f  28/9/1 10/8/7 29/10/7
f  25/11/8 29/10/7 32/12/8
f  32/12/8 29/10/7 10/8/7
f  32/12/8 31/13/9 25/11/8
f  25/11/8 31/13/9 26/14/9
f  33/1/3 34/3/3 35/2/3
f  36/5/3 34/3/3 33/1/3
f  3/4/3 34/3/3 36/5/3
f  37/6/2 38/1/2 39/2/2
f  2/4/2 4/5/2 37/6/2
f  37/6/2 4/5/2 38/1/2
f  2/7/1 3/9/1 4/8/10
f  4/8/10 3/9/1 36/10/10
f  33/11/11 38/12/11 36/10/10
f  36/10/10 38/12/11 4/8/10
f  38/12/11 33/11/11 39/13/12
f  39/13/12 33/11/11 35/14/12

# Mesh 'lod_high' with 400 faces
g lod_high
usemtl material2_1
f  40/15/4 41/16/4 42/17/4
f  42/17/4 41/16/4 43/18/4
f  42/17/4 43/18/4 44/19/4
f  44/19/4 43/18/4 45/20/4
f  41/16/1 46/21/1 43/18/1
f  43/18/1 46/21/1 47/22/1
f  43/18/1 47/22/1 45/20/1
f  45/20/1 47/22/1 48/23/1
f  46/21/4 49/24/4 47/22/4
f  47/22/4 49/24/4 50/25/4
f  47/22/4 50/25/4 48/23/4
f  48/23/4 50/25/4 51/26/4
f  49/24/1 52/27/1 50/25/1
f  50/25/1 52/27/1 53/28/1
f  50/25/1 53/28/1 51/26/1
f  51/26/1 53/28/1 54/29/1
f  55/30/4 56/31/4 57/32/4
f  57/32/4 56/31/4 58/33/4
f  57/32/4 58/33/4 59/34/4
f  59/34/4 58/33/4 60/35/4
f  56/31/1 61/36/1 58/33/1
f  58/33/1 61/36/1 62/37/1
f  58/33/1 62/37/1 60/35/1
f  60/35/1 62/37/1 63/38/1
f  61/36/4 64/39/4 62/37/4
f  62/37/4 64/39/4 65/40/4
f  62/37/4 65/40/4 63/38/4
f  63/38/4 65/40/4 66/41/4
f  64/39/1 40/42/1 65/40/1
f  65/40/1 40/42/1 42/43/1
f  65/40/1 42/43/1 66/41/1
f  66/41/1 42/43/1 44/44/1
f  67/20/4 68/26/13 69/18/4
f  69/18/4 68/26/13 70/25/4
f  69/18/4 70/25/4 71/16/4
f  71/16/4 70/25/4 72/24/4
f  68/26/1 55/29/1 70/25/1
f  70/25/1 55/29/1 57/28/1
f  70/25/1 57/28/1 72/24/14
f  72/24/14 57/28/1 59/27/1
f  73/15/4 74/16/4 75/17/4
f  75/17/4 74/16/4 76/18/4
f  75/17/4 76/18/4 77/19/4
f  77/19/4 76/18/4 78/20/4
f  74/16/1 79/21/1 76/18/1
f  76/18/1 79/21/1 80/22/1
f  76/18/1 80/22/1 78/20/1
f  78/20/1 80/22/1 81/23/1
f  79/21/4 82/24/4 80/22/4
f  80/22/4 82/24/4 83/25/4
f  80/22/4 83/25/4 81/23/4
f  81/23/4 83/25/4 84/26/4
f  82/24/1 85/27/1 83/25/1
f  83/25/1 85/27/1 86/28/1
f  83/25/1 86/28/1 84/26/1
f  84/26/1 86/28/1 87/29/1
f  88/30/4 89/31/4 90/32/4
f  90/32/4 89/31/4 91/33/4
f  90/32/4 91/33/4 92/34/4
f  92/34/4 91/33/4 93/35/4
f  89/31/1 94/36/1 91/33/1
f  91/33/1 94/36/1 95/37/1
f  91/33/1 95/37/1 93/35/1
f  93/35/1 95/37/1 96/38/1
f  94/36/4 97/39/4 95/37/4
f  95/37/4 97/39/4 98/40/4
f  95/37/4 98/40/4 96/38/4
f  96/38/4 98/40/4 99/41/4
f  97/39/1 73/42/1 98/40/1
f  98/40/1 73/42/1 75/43/1
f  98/40/1 75/43/1 99/41/1
f  99/41/1 75/43/1 77/44/1
f  100/19/4 101/20/4 102/17/4
f  102/17/4 101/20/4 103/18/4
f  102/17/4 103/18/4 104/15/4
f  104/15/4 103/18/4 105/16/4
f  101/20/1 106/23/1 103/18/1
f  103/18/1 106/23/1 107/22/1
f  103/18/1 107/22/1 105/16/1
f  105/16/1 107/22/1 108/21/1
f  106/23/4 109/26/4 107/22/4
f  107/22/4 109/26/4 110/25/4
f  107/22/4 110/25/4 108/21/4
f  108/21/4 110/25/4 111/24/4
f  109/26/1 88/29/1 110/25/1
f  110/25/1 88/29/1 90/28/1
f  110/25/1 90/28/1 111/24/1
f  111/24/1 90/28/1 92/27/1
f  52/34/4 112/35/4 53/32/4
f  53/32/4 112/35/4 113/33/4
f  53/32/4 113/33/4 54/30/4
f  54/30/4 113/33/4 114/31/4
f  112/35/1 115/38/1 113/33/1
f  113/33/1 115/38/1 116/37/1
f  113/33/1 116/37/1 114/31/1
f  114/31/1 116/37/1 117/36/1
f  115/38/4 118/41/4 116/37/4
f  116/37/4 118/41/4 119/40/4
f  116/37/4 119/40/4 117/36/4
f  117/36/4 119/40/4 120/39/4
f  118/41/1 100/44/1 119/40/1
f  119/40/1 100/44/1 102/43/1
f  119/40/1 102/43/1 120/39/1
f  120/39/1 102/43/1 104/42/1
f  121/15/4 122/16/4 123/17/4
f  123/17/4 122/16/4 124/18/4
f  123/17/4 124/18/4 125/19/4
f  125/19/4 124/18/4 126/20/4
f  122/16/1 127/21/1 124/18/1
f  124/18/1 127/21/1 128/22/1
f  124/18/1 128/22/1 126/20/1
f  126/20/1 128/22/1 129/23/1
f  127/21/4 130/24/4 128/22/4
f  128/22/4 130/24/4 131/25/4
f  128/22/4 131/25/4 129/23/4
f  129/23/4 131/25/4 132/26/4
f  130/24/1 133/27/1 131/25/1
f  131/25/1 133/27/1 134/28/1
f  131/25/1 134/28/1 132/26/1
f  132/26/1 134/28/1 135/29/1
f  136/30/4 137/31/4 138/32/4
f  138/32/4 137/31/4 139/33/4
f  138/32/4 139/33/4 140/34/4
f  140/34/4 139/33/4 141/35/4
f  137/31/1 142/36/1 139/33/1
f  139/33/1 142/36/1 143/37/1
f  139/33/1 143/37/1 141/35/1
f  141/35/1 143/37/1 144/38/1
f  142/36/4 145/39/4 143/37/4
f  143/37/4 145/39/4 146/40/4
f  143/37/4 146/40/4 144/38/4
f  144/38/4 146/40/4 147/41/4
f  145/39/1 121/42/1 146/40/1
f  146/40/1 121/42/1 123/43/1
f  146/40/1 123/43/1 147/41/1
f  147/41/1 123/43/1 125/44/1
f  148/19/4 149/20/4 150/17/4
f  150/17/4 149/20/4 151/18/4
f  150/17/4 151/18/4 152/15/4
f  152/15/4 151/18/4 153/16/4
f  149/20/1 154/23/1 151/18/1
f  151/18/1 154/23/1 155/22/1
f  151/18/1 155/22/1 153/16/1
f  153/16/1 155/22/1 156/21/1
f  154/23/4 157/26/4 155/22/4
f  155/22/4 157/26/4 158/25/4
f  155/22/4 158/25/4 156/21/4
f  156/21/4 158/25/4 159/24/4
f  157/26/1 136/29/1 158/25/1
f  158/25/1 136/29/1 138/28/1
f  158/25/1 138/28/1 159/24/1
f  159/24/1 138/28/1 140/27/1
f  85/34/4 160/35/4 86/32/4
f  86/32/4 160/35/4 161/33/4
f  86/32/4 161/33/4 87/30/4
f  87/30/4 161/33/4 162/31/4
f  160/35/1 163/38/1 161/33/1
f  161/33/1 163/38/1 164/37/1
f  161/33/1 164/37/1 162/31/1
f  162/31/1 164/37/1 165/36/1
f  163/38/4 166/41/4 164/37/4
f  164/37/4 166/41/4 167/40/4
f  164/37/4 167/40/4 165/36/4
f  165/36/4 167/40/4 168/39/4
f  166/41/1 148/44/1 167/40/1
f  167/40/1 148/44/1 150/43/1
f  167/40/1 150/43/1 168/39/1
f  168/39/1 150/43/1 152/42/1
f  169/15/4 170/16/4 171/17/4
f  171/17/4 170/16/4 172/18/4
f  171/17/4 172/18/4 173/19/4
f  173/19/4 172/18/4 174/20/4
f  170/16/1 175/21/1 172/18/1
f  172/18/1 175/21/1 176/22/1
f  172/18/1 176/22/1 174/20/1
f  174/20/1 176/22/1 177/23/1
f  175/21/4 178/24/4 176/22/4
f  176/22/4 178/24/4 179/25/4
f  176/22/4 179/25/4 177/23/4
f  177/23/4 179/25/4 180/26/4
f  178/24/1 181/27/1 179/25/1
f  179/25/1 181/27/1 182/28/1
f  179/25/1 182/28/1 180/26/1
f  180/26/1 182/28/1 183/29/1
f  184/30/4 185/31/4 186/32/4
f  186/32/4 185/31/4 187/33/4
f  186/32/4 187/33/4 188/34/4
f  188/34/4 187/33/4 189/35/4
f  185/31/1 190/36/1 187/33/1
f  187/33/1 190/36/1 191/37/1
f  187/33/1 191/37/1 189/35/1
f  189/35/1 191/37/1 192/38/1
f  190/36/4 193/39/4 191/37/4
f  191/37/4 193/39/4 194/40/4
f  191/37/4 194/40/4 192/38/4
f  192/38/4 194/40/4 195/41/4
f  193/39/1 169/42/1 194/40/1
f  194/40/1 169/42/1 171/43/1
f  194/40/1 171/43/1 195/41/1
f  195/41/1 171/43/1 173/44/1
f  196/19/4 197/20/4 198/17/4
f  198/17/4 197/20/4 199/18/4
f  198/17/4 199/18/4 200/15/4
f  200/15/4 199/18/4 201/16/4
f  197/20/1 202/23/1 199/18/1
f  199/18/1 202/23/1 203/22/1
f  199/18/1 203/22/1 201/16/1
f  201/16/1 203/22/1 204/21/1
f  202/23/4 205/26/4 203/22/4
f  203/22/4 205/26/4 206/25/4
f  203/22/4 206/25/4 204/21/4
f  204/21/4 206/25/4 207/24/4
f  205/26/1 184/29/1 206/25/1
f  206/25/1 184/29/1 186/28/1
f  206/25/1 186/28/1 207/24/1
f  207/24/1 186/28/1 188/27/1
f  133/34/4 208/35/4 134/32/4
f  134/32/4 208/35/4 209/33/4
f  134/32/4 209/33/4 135/30/4
f  135/30/4 209/33/4 210/31/4
f  208/35/1 211/38/1 209/33/1
f  209/33/1 211/38/1 212/37/1
f  209/33/1 212/37/1 210/31/1
f  210/31/1 212/37/1 213/36/1
f  211/38/4 214/41/4 212/37/4
f  212/37/4 214/41/4 215/40/4
f  212/37/4 215/40/4 213/36/4
f  213/36/4 215/40/4 216/39/4
f  214/41/1 196/44/1 215/40/1
f  215/40/1 196/44/1 198/43/1
f  215/40/1 198/43/1 216/39/1
f  216/39/1 198/43/1 200/42/1
f  217/15/4 218/16/4 219/17/4
f  219/17/4 218/16/4 220/18/4
f  219/17/4 220/18/4 221/19/4
f  221/19/4 220/18/4 222/20/4
f  218/16/1 223/21/1 220/18/1
f  220/18/1 223/21/1 224/22/1
f  220/18/1 224/22/1 222/20/1
f  222/20/1 224/22/1 225/23/1
f  223/21/4 226/24/4 224/22/4
f  224/22/4 226/24/4 227/25/4
f  224/22/4 227/25/4 225/23/4
f  225/23/4 227/25/4 228/26/4
f  226/24/1 229/27/1 227/25/1
f  227/25/1 229/27/1 230/28/1
f  227/25/1 230/28/1 228/26/1
f  228/26/1 230/28/1 231/29/1
f  232/30/4 233/31/4 234/32/4
f  234/32/4 233/31/4 235/33/4
f  234/32/4 235/33/4 236/34/4
f  236/34/4 235/33/4 237/35/4
f  233/31/1 238/36/1 235/33/1
f  235/33/1 238/36/1 239/37/1
f  235/33/1 239/37/1 237/35/1
f  237/35/1 239/37/1 240/38/1
f  238/36/4 241/39/4 239/37/4
f  239/37/4 241/39/4 242/40/4
f  239/37/4 242/40/4 240/38/4
f  240/38/4 242/40/4 243/41/4
f  241/39/1 217/42/1 242/40/1
f  242/40/1 217/42/1 219/43/1
f  242/40/1 219/43/1 243/41/1
f  243/41/1 219/43/1 221/44/1
f  244/19/4 245/20/4 246/17/4
f  246/17/4 245/20/4 247/18/4
f  246/17/4 247/18/4 248/15/4
f  248/15/4 247/18/4 249/16/4
f  245/20/1 250/23/1 247/18/1
f  247/18/1 250/23/1 251/22/1
f  247/18/1 251/22/1 249/16/1
f  249/16/1 251/22/1 252/21/1
f  250/23/4 253/26/4 251/22/4
f  251/22/4 253/26/4 254/25/4
f  251/22/4 254/25/4 252/21/4
f  252/21/4 254/25/4 255/24/4
f  253/26/1 232/29/1 254/25/1
f  254/25/1 232/29/1 234/28/1
f  254/25/1 234/28/1 255/24/1
f  255/24/1 234/28/1 236/27/1
f  181/34/4 256/35/4 182/32/4
f  182/32/4 256/35/4 257/33/4
f  182/32/4 257/33/4 183/30/4
f  183/30/4 257/33/4 258/31/4
f  256/35/1 259/38/1 257/33/1
f  257/33/1 259/38/1 260/37/1
f  257/33/1 260/37/1 258/31/1
f  258/31/1 260/37/1 261/36/1
f  259/38/4 262/41/4 260/37/4
f  260/37/4 262/41/4 263/40/4
f  260/37/4 263/40/4 261/36/4
f  261/36/4 263/40/4 264/39/4
f  262/41/1 244/44/1 263/40/1
f  263/40/1 244/44/1 246/43/1
f  263/40/1 246/43/1 264/39/1
f  264/39/1 246/43/1 248/42/1
f  265/15/4 266/16/4 267/17/4
f  267/17/4 266/16/4 268/18/4
f  267/17/4 268/18/4 269/19/4
f  269/19/4 268/18/4 270/20/4
f  266/16/1 271/21/1 268/18/1
f  268/18/1 271/21/1 272/22/1
f  268/18/1 272/22/1 270/20/1
f  270/20/1 272/22/1 273/23/1
f  271/21/4 274/24/4 272/22/4
f  272/22/4 274/24/4 275/25/4
f  272/22/4 275/25/4 273/23/4
f  273/23/4 275/25/4 276/26/4
f  274/24/1 277/27/1 275/25/1
f  275/25/1 277/27/1 278/28/1
f  275/25/1 278/28/1 276/26/1
f  276/26/1 278/28/1 279/29/1
f  280/30/4 281/31/4 282/32/4
f  282/32/4 281/31/4 283/33/4
f  282/32/4 283/33/4 284/34/4
f  284/34/4 283/33/4 285/35/4
f  281/31/1 286/36/1 283/33/1
f  283/33/1 286/36/1 287/37/1
f  283/33/1 287/37/1 285/35/1
f  285/35/1 287/37/1 288/38/1
f  286/36/4 289/39/4 287/37/4
f  287/37/4 289/39/4 290/40/4
f  287/37/4 290/40/4 288/38/4
f  288/38/4 290/40/4 291/41/4
f  289/39/1 265/42/1 290/40/1
f  290/40/1 265/42/1 267/43/1
f  290/40/1 267/43/1 291/41/1
f  291/41/1 267/43/1 269/44/1
f  292/19/4 293/20/4 294/17/4
f  294/17/4 293/20/4 295/18/4
f  294/17/4 295/18/4 296/15/4
f  296/15/4 295/18/4 297/16/4
f  293/20/1 298/23/1 295/18/1
f  295/18/1 298/23/1 299/22/1
f  295/18/1 299/22/1 297/16/1
f  297/16/1 299/22/1 300/21/1
f  298/23/4 301/26/4 299/22/4
f  299/22/4 301/26/4 302/25/4
f  299/22/4 302/25/4 300/21/4
f  300/21/4 302/25/4 303/24/4
f  301/26/1 280/29/1 302/25/1
f  302/25/1 280/29/1 282/28/1
f  302/25/1 282/28/1 303/24/1
f  303/24/1 282/28/1 284/27/1
f  229/34/4 304/35/4 230/32/4
f  230/32/4 304/35/4 305/33/4
f  230/32/4 305/33/4 231/30/4
f  231/30/4 305/33/4 306/31/4
f  304/35/1 307/38/1 305/33/1
f  305/33/1 307/38/1 308/37/1
f  305/33/1 308/37/1 306/31/1
f  306/31/1 308/37/1 309/36/1
f  307/38/4 310/41/4 308/37/4
f  308/37/4 310/41/4 311/40/4
f  308/37/4 311/40/4 309/36/4
f  309/36/4 311/40/4 312/39/4
f  310/41/1 292/44/1 311/40/1
f  311/40/1 292/44/1 294/43/1
f  311/40/1 294/43/1 312/39/1
f  312/39/1 294/43/1 296/42/1
f  313/30/4 314/31/15 315/32/4
f  315/32/4 314/31/15 316/33/4
f  315/32/4 316/33/4 317/34/4
f  317/34/4 316/33/4 318/35/4
f  314/31/1 319/36/1 316/33/1
f  316/33/1 319/36/1 320/37/1
f  316/33/1 320/37/1 318/35/16
f  318/35/16 320/37/1 321/38/1
f  322/19/4 323/20/4 324/17/4
f  324/17/4 323/20/4 325/18/4
f  324/17/4 325/18/4 326/15/4
f  326/15/4 325/18/4 327/16/4
f  323/20/1 328/23/1 325/18/1
f  325/18/1 328/23/1 329/22/1
f  325/18/1 329/22/1 327/16/1
f  327/16/1 329/22/1 330/21/1
f  328/23/4 331/26/4 329/22/4
f  329/22/4 331/26/4 332/25/4
f  329/22/4 332/25/4 330/21/4
f  330/21/4 332/25/4 333/24/4
f  331/26/1 313/29/1 332/25/1
f  332/25/1 313/29/1 315/28/1
f  332/25/1 315/28/1 333/24/1
f  333/24/1 315/28/1 317/27/1
f  277/34/4 334/35/4 278/32/4
f  278/32/4 334/35/4 335/33/4
f  278/32/4 335/33/4 279/30/4
f  279/30/4 335/33/4 336/31/4
f  334/35/1 337/38/1 335/33/1
f  335/33/1 337/38/1 338/37/1
f  335/33/1 338/37/1 336/31/1
f  336/31/1 338/37/1 339/36/1
f  337/38/4 340/41/4 338/37/4
f  338/37/4 340/41/4 341/40/4
f  338/37/4 341/40/4 339/36/4
f  339/36/4 341/40/4 342/39/4
f  340/41/1 322/44/1 341/40/1
f  341/40/1 322/44/1 324/43/1
f  341/40/1 324/43/1 342/39/1
f  342/39/1 324/43/1 326/42/1

