# File produced by Open Asset Import Library (http://www.assimp.sf.net)
# (assimp v3.1.187496374)

mtllib fort_door.obj.mtl

# 82 vertex positions
v  1.09037 -0.095628 0.923382
v  7.77806 -0.168279 0.865168
v  1.11182 0.764936 0.923194
v  7.77806 0.692522 0.865168
v  7.73466 0.692522 -0.70883
v  1.15973 0.764544 -0.708828
v  -7.62677 0.860792 -0.708825
v  -7.71234 0.860792 1.00001
v  -7.71234 0 1.00001
v  -7.63925 0 0.189303
v  -7.73927 0 -0.708826
v  7.27318 16.1062 0.128121
v  7.73466 -0.168279 -0.70883
v  7.75574 -0.168279 0.169891
v  9.15391 0.692522 -2
v  9.15258 -0.168279 0.282722
v  9.15391 -0.168279 -2
v  8.53922 16.1549 -2
v  8.53691 16.1284 0.129509
v  8.51541 16.7538 -2
v  8.52053 16.7305 0.125434
v  8.50528 17.9358 -2
v  8.47848 17.8605 0.114666
v  9.10997 19.3949 -2
v  9.09835 19.2884 1.66343
v  9.10997 17.8823 -2
v  9.09835 18.0047 1.66343
v  -9.72872 19.013 1.54607
v  -9.72872 17.5004 1.54607
v  7.23847 17.8459 0.087299
v  7.2342 17.8459 -0.708829
v  7.26028 16.7108 0.127002
v  7.24222 16.7022 -0.708833
v  -8.97075 17.5377 -1.99999
v  -8.96702 16.519 -2
v  -8.95376 17.5045 0.178063
v  -8.9711 16.455 0.180758
v  -8.98164 15.8166 0.182401
v  -8.97744 15.889 -1.99999
v  -9.42316 -0.168279 0.239767
v  -9.34764 -0.168279 -1.99999
v  -7.69074 17.6755 0.132249
v  -7.68396 16.4775 0.142927
v  -7.6885 17.6687 -0.708825
v  -7.68418 16.4895 -0.708826
v  -7.68185 15.8559 -0.708825
v  -7.68231 15.8422 0.144223
v  7.27048 16.1319 -0.708831
v  -9.68802 17.6553 -1.99999
v  -9.71501 19.013 -2
v  -9.4613 -0.594713 1.06149
v  9.2727 -0.594713 1.06149
v  9.2727 18.7578 1.06149
v  -9.4613 18.7578 1.06149
v  9.94434 -0.594713 -3
v  9.94434 18.7578 -3
v  -9.89354 -0.594713 -3
v  -9.89354 18.7578 -3
v  -3.66076 0.692534 -0.5577
v  -3.59151 18.1013 -0.520213
v  0.127235 0.692534 -0.499716
v  0.328278 18.2326 -0.460329
v  0.323354 18.2319 -0.133934
v  0.122275 0.691848 -0.173329
v  -7.77823 17.948 -0.429203
v  -7.71567 0.860808 -0.464799
v  -3.59041 18.1006 -0.193837
v  -7.77109 17.9473 -0.102846
v  -7.70837 0.860105 -0.138444
v  -3.65959 0.691839 -0.231335
v  7.73821 0.691837 -0.116327
v  7.73856 0.692534 -0.45356
v  7.21057 18.2319 -0.080589
v  7.21091 18.2326 -0.417821
v  0.088315 0.691839 -0.124179
v  0.289895 18.2319 -0.087694
v  0.0886593 0.692534 -0.461425
v  0.290243 18.2326 -0.424913
v  3.75023 18.2319 -0.084145
v  3.91326 0.691838 -0.12025
v  3.91361 0.692534 -0.457494
v  3.75058 18.2326 -0.421367

# 66 UV coordinates
vt 0.876953 0.710346 0
vt 0.998047 0.710346 0
vt 0.876953 0.748047 0
vt 0.998047 0.748047 0
vt 0.586914 0.69218 0
vt 0.572311 0.69218 0
vt 0.557707 0.69218 0
vt 0.585773 0.892609 0
vt 0.57647 0.601372 0
vt 0.585773 0.601372 0
vt 0.586914 0.608333 0
vt 0.557707 0.590685 0
vt 0.586914 0.593234 0
vt 0.586914 0.879881 0
vt 0.557707 0.875041 0
vt 0.586914 0.8904 0
vt 0.557707 0.885621 0
vt 0.586914 0.909315 0
vt 0.557707 0.905487 0
vt 0.586914 0.590686 0
vt 0.557707 0.590686 0
vt 0.557707 0.909315 0
vt 0.585118 0.590685 0
vt 0.585666 0.69218 0
vt 0.586327 0.590685 0
vt 0.586248 0.596196 0
vt 0.572098 0.596475 0
vt 0.586914 0.60392 0
vt 0.557707 0.604614 0
vt 0.557707 0.613088 0
vt 0.586914 0.612277 0
vt 0.586914 0.595722 0
vt 0.557707 0.597806 0
vt 0.557707 0.601632 0
vt 0.586914 0.598409 0
vt 0.57647 0.90092 0
vt 0.57647 0.760686 0
vt 0.586541 0.903525 0
vt 0.568363 0.899935 0
vt 0.58654 0.909315 0
vt 0.561098 0.909315 0
vt 0.577921 0.876861 0
vt 0.57819 0.618129 0
vt 0.569244 0.876786 0
vt 0.572297 0.617977 0
vt 0.586914 0.605393 0
vt 0.557707 0.60569 0
vt 0.586914 0.613768 0
vt 0.557707 0.614106 0
vt 0.557707 0.601372 0
vt 0.557707 0.892609 0
vt 0.585773 0.892895 0
vt 0.585118 0.909315 0
vt 0.585141 0.590685 0
vt 0.566801 0.590685 0
vt 0.566801 0.909315 0
vt 0.566801 0.590686 0
vt 0.586914 0.673156 0
vt 0.557707 0.616537 0
vt 0.586914 0.637847 0
vt 0.558081 0.596443 0
vt 0.557707 0.64643 0
vt 0.623047 0.501953 0
vt 0.623047 0.998047 0
vt 0.501953 0.501953 0
vt 0.501953 0.998047 0

# 74 vertex normals
vn 0.008704 0 0.999962
vn 0.01187 0.513614 0.857939
vn 0.010907 0.999941 -0.000107
vn 0.010908 0.99994 0.000106
vn 0.010909 0.99994 0.000319
vn 0.999984 -0.000534 0.00563
vn -0.999472 -0.032016 0.005587
vn -0.99959 -0.028618 -0
vn 0.999254 0.037695 0.0084
vn 0.881449 0.020762 0.471823
vn 0.999359 0.035569 0.004065
vn 0.999604 0.028015 0.002685
vn 0.999729 0.022587 0.005639
vn 0.999995 0 0.003172
vn 0.970857 -0.222699 0.088558
vn 0.928813 -0.133339 0.345728
vn -0.001247 -0.297494 0.954723
vn -0.006234 0 0.999981
vn -0.999763 -0.020523 0.007306
vn -0.999631 -0.02392 0.012898
vn 0.059906 -0.997982 0.021046
vn 0.033942 -0.999123 0.024499
vn 0.06303 -0.997975 0.008563
vn 0.036445 -0.998146 0.048738
vn -0.999973 0.006582 0.003111
vn -0.999933 0.011552 0.000864
vn -0.999736 0.020906 -0.009493
vn -0.999525 0.025289 -0.017604
vn 0.999988 0.004682 0.001205
vn 0.999992 0.003906 0.000695
vn 0.999995 0.001299 0.002908
vn -0.999578 -0.029034 -0.000871
vn -0.105973 -0.993818 -0.033095
vn 0.015369 -0.999665 0.020819
vn 0.016921 -0.99978 0.012414
vn 0.011653 -0.999924 0.004126
vn 0.056155 -0.998114 0.024803
vn 0.021655 -0.999558 0.02036
vn 0.032344 0.005795 0.99946
vn 0.030839 0.003948 0.999517
vn 0.028947 0.00248 0.999578
vn 0.028558 0.00286 0.999588
vn 0.422646 0.010294 0.906236
vn -0.042927 0.004533 0.999068
vn -0.021469 0.004419 0.99976
vn -0.005308 0.01314 0.9999
vn 0.437225 0.019957 0.899131
vn -0.010616 0.021977 0.999702
vn 0 0 1
vn 0.99962 0 -0.027563
vn -0.997726 0.065194 -0.017118
vn -0.999925 -0.009401 -0.007878
vn -0.017498 0.999739 0.014699
vn 0.986601 0 0.163152
vn -0.994385 0 0.105826
vn -0.003526 0.002102 -0.999992
vn 0.015255 0.002081 -0.999881
vn 0.99982 -0.011495 0.015115
vn -0.022305 0.002122 -0.999749
vn -0.035053 0.999383 0.002262
vn -0.036561 0.999328 0.002612
vn -0.999749 -0.003711 0.022108
vn -0.033546 0.999435 0.00192
vn -0.015284 -0.002082 0.999881
vn 0.003526 -0.002103 0.999992
vn 0.022335 -0.002123 0.999748
vn 0.999547 0.030067 0.00108
vn -0.999933 0.011494 -0.001003
vn -0.001027 -0.002068 0.999997
vn -0.001026 -0.002068 0.999997
vn 0.001026 0.00207 -0.999997
vn 0.001027 0.002069 -0.999997
vn 0 0.999998 0.00211
vn 0 0.999998 0.002084

# Mesh '_' with 71 faces
g _
usemtl JoinedMaterial_#2
f  1/1/1 2/2/2 3/3/1
f  3/3/1 2/2/2 4/4/1
f  5/1/3 6/2/4 4/3/3
f  4/3/3 6/2/4 3/4/4
f  6/1/4 7/2/5 3/3/4
f  3/3/4 7/2/5 8/4/5
f  9/1/1 1/2/1 8/3/1
f  8/3/1 1/2/1 3/4/1
f  10/5/6 11/6/6 7/7/6
f  12/8/7 13/9/8 14/10/8
f  15/11/9 16/12/9 17/13/10
f  18/14/11 19/15/11 15/11/9
f  15/11/9 19/15/11 16/12/9
f  20/16/12 21/17/12 18/14/11
f  18/14/11 21/17/12 19/15/11
f  22/18/13 21/17/12 20/16/12
f  23/19/13 21/17/12 22/18/13
f  24/20/14 25/5/15 26/21/16
f  26/21/16 25/5/15 27/7/14
f  25/20/17 28/18/18 27/21/18
f  27/21/18 28/18/18 29/22/18
f  30/20/19 31/5/19 32/23/20
f  32/23/20 31/5/19 33/24/20
f  26/25/21 27/21/22 22/26/23
f  22/26/23 27/21/22 23/27/24
f  34/20/25 35/28/26 36/21/25
f  36/21/25 35/28/26 37/29/26
f  37/29/26 35/28/26 38/30/27
f  38/30/27 35/28/26 39/31/27
f  38/30/27 39/31/27 40/22/28
f  40/22/28 39/31/27 41/18/28
f  42/20/29 43/32/30 44/21/29
f  44/21/29 43/32/30 45/33/30
f  45/33/30 43/32/30 46/34/31
f  46/34/31 43/32/30 47/35/31
f  47/35/31 10/5/6 46/34/31
f  46/34/31 10/5/6 7/7/6
f  32/23/20 33/24/20 12/8/7
f  12/8/7 33/24/20 48/36/7
f  48/36/7 5/37/32 12/8/7
f  12/8/7 5/37/32 13/9/8
f  34/38/33 36/39/34 49/40/33
f  49/40/33 36/39/34 29/41/35
f  44/42/36 31/43/36 42/44/37
f  42/44/37 31/43/36 30/45/38
f  42/20/39 36/21/39 43/46/40
f  43/46/40 36/21/39 37/47/40
f  43/46/40 37/47/40 47/48/41
f  47/48/41 37/47/40 38/49/41
f  47/48/41 38/49/41 10/18/42
f  10/18/42 38/49/41 40/22/42
f  14/50/43 16/10/44 12/51/45
f  12/51/45 16/10/44 19/52/45
f  12/51/45 19/52/45 32/53/46
f  32/53/46 19/52/45 21/54/46
f  32/53/46 21/54/46 30/18/47
f  30/18/47 21/54/46 23/20/48
f  23/27/24 27/21/22 30/45/38
f  30/45/38 27/21/22 29/41/35
f  30/45/38 29/41/35 42/44/37
f  42/44/37 29/41/35 36/39/34
f  31/55/49 44/56/49 5/21/49
f  5/21/49 44/56/49 7/22/49
f  13/57/50 5/56/50 2/21/50
f  2/21/50 5/56/50 4/22/50
f  7/57/51 11/56/51 8/21/51
f  8/21/51 11/56/51 9/22/51
f  49/58/52 29/20/52 50/59/52
f  50/59/52 29/20/52 28/21/52
f  25/20/53 24/60/53 28/61/53
f  28/61/53 24/60/53 50/62/53

# Mesh 'collision' with 6 faces
g collision
usemtl JoinedMaterial_#2
f  51//49 52//49 53//49
f  51//49 53//49 54//49
f  52//54 55//54 56//54
f  52//54 56//54 53//54
f  57//55 51//55 54//55
f  57//55 54//55 58//55

# Mesh 'door_left' with 16 faces
g door_left
usemtl JoinedMaterial_#2
f  59/63/56 60/64/56 61/65/57
f  61/65/57 60/64/56 62/66/57
f  63/66/58 64/65/58 62/66/58
f  62/66/58 64/65/58 61/65/58
f  65/66/59 60/64/56 66/65/59
f  66/65/59 60/64/56 59/63/56
f  60/63/60 65/65/61 67/63/60
f  67/63/60 65/65/61 68/65/61
f  68/66/62 65/66/62 69/65/62
f  69/65/62 65/66/62 66/65/62
f  62/65/63 60/63/60 63/65/63
f  63/65/63 60/63/60 67/63/60
f  64/65/64 63/66/64 70/63/65
f  70/63/65 63/66/64 67/64/65
f  70/63/65 67/64/65 69/65/66
f  69/65/66 67/64/65 68/66/66

# Mesh 'door_right' with 16 faces
g door_right
usemtl JoinedMaterial_#2
f  71/66/67 72/66/67 73/65/67
f  73/65/67 72/66/67 74/65/67
f  75/66/68 76/65/68 77/66/68
f  77/66/68 76/65/68 78/65/68
f  76/65/69 75/66/69 79/63/69
f  79/63/69 75/66/69 80/64/69
f  79/63/69 80/64/69 73/65/70
f  73/65/70 80/64/69 71/66/70
f  77/66/71 78/65/71 81/64/71
f  81/64/71 78/65/71 82/63/71
f  81/64/71 82/63/71 72/66/72
f  72/66/72 82/63/71 74/65/72
f  78/65/73 76/65/73 82/63/73
f  82/63/73 76/65/73 79/63/73
f  82/63/73 79/63/73 74/65/74
f  74/65/74 79/63/73 73/65/74

