# File produced by Open Asset Import Library (http://www.assimp.sf.net)
# (assimp v3.1.187496374)

mtllib pir_m_bld_frt_tower_100.obj.mtl

# 66 vertex positions
v  39.5175 175.717 -39.5175
v  0 175.717 -55.8862
v  39.5175 201.709 -39.5175
v  0 201.709 -55.8862
v  -39.5175 175.717 -39.5175
v  -55.8862 175.717 0
v  -39.5175 201.709 -39.5175
v  -55.8862 201.709 0
v  -39.5175 175.717 39.5175
v  0 175.717 55.8862
v  -39.5175 201.709 39.5175
v  0 201.709 55.8862
v  39.5175 175.717 39.5175
v  39.5175 201.709 39.5175
v  55.8862 175.717 0
v  55.8862 201.709 0
v  0 207.959 55.8862
v  39.5175 207.959 39.5175
v  55.8862 207.959 0
v  39.5175 207.959 -39.5175
v  44.709 207.959 0
v  31.614 207.959 -31.614
v  31.614 201.709 -31.614
v  0 201.709 -44.709
v  -31.614 201.709 -31.614
v  -44.7089 201.709 0
v  -31.614 201.709 31.614
v  0 201.709 44.709
v  31.614 201.709 31.614
v  44.709 201.709 0
v  0 207.959 -44.709
v  -31.614 207.959 -31.614
v  -44.709 207.959 0
v  -31.614 207.959 31.614
v  0 207.959 44.709
v  31.614 207.959 31.614
v  0 207.959 -55.8862
v  -55.8862 207.959 0
v  -39.5175 207.959 -39.5175
v  -39.5175 207.959 39.5175
v  0 157.129 0
v  0 195.459 0
v  35.3553 166.25 -35.3553
v  35.3553 0 -35.3553
v  0 166.25 -50
v  0 0 -50
v  -35.3553 166.25 -35.3553
v  0 175 -50
v  -35.3553 175 -35.3553
v  35.3553 175 -35.3553
v  -35.3553 0 -35.3553
v  -50 166.25 0
v  -50 175 0
v  -50 0 0
v  -35.3553 166.25 35.3553
v  -35.3553 175 35.3553
v  -35.3553 0 35.3553
v  0 166.25 50
v  0 175 50
v  0 0 50
v  35.3553 166.25 35.3553
v  35.3553 175 35.3553
v  35.3553 0 35.3553
v  50 166.25 0
v  50 175 0
v  50 0 0

# 68 UV coordinates
vt -5.94 -0.214455 0
vt -5.37 -0.214455 0
vt -5.94 0.49342 0
vt -5.37 0.49342 0
vt -4.81 -0.214455 0
vt -4.24 -0.214455 0
vt -4.81 0.49342 0
vt -4.24 0.49342 0
vt -3.67 -0.214455 0
vt -3.11 -0.214455 0
vt -3.67 0.49342 0
vt -3.11 0.49342 0
vt -2.54 -0.214455 0
vt -2.54 0.49342 0
vt -1.97 -0.214455 0
vt -1.97 0.49342 0
vt -3.11 0.657893 0
vt -2.54 0.657893 0
vt -2.07 0 0
vt -2.45 0 0
vt -2.11 0.109645 0
vt -2.41 0.109645 0
vt -0.50868 0.657893 0
vt -0.961991 0.657893 0
vt -0.50868 0.49342 0
vt -0.961991 0.49342 0
vt -0.342059 0.657893 0
vt -0.342059 0.49342 0
vt -1.13 0.657893 0
vt -1.13 0.49342 0
vt -3.67 0.109645 0
vt -3.11 0.109645 0
vt -3.38 0.548225 0
vt -5.37 0.657893 0
vt -4.81 0.657893 0
vt -4.24 0.657893 0
vt -3.67 0.657893 0
vt -1.41 -0.214455 0
vt -1.41 0.49342 0
vt -1.97 0.657893 0
vt -1.41 0.657893 0
vt -0.047841 0.788443 0
vt -0.047841 -2.78 0
vt 0.886325 0.788443 0
vt 0.886325 -2.78 0
vt 1.82 0.788443 0
vt 0.886325 0.986839 0
vt 1.82 0.986839 0
vt -0.047841 0.986839 0
vt 1.82 -2.78 0
vt 2.75 0.788443 0
vt 2.75 0.986839 0
vt 2.75 -2.78 0
vt 3.69 0.788443 0
vt 3.69 0.986839 0
vt 3.69 -2.78 0
vt 4.62 0.788443 0
vt 4.62 0.986839 0
vt 4.62 -2.78 0
vt 5.56 0.788443 0
vt 5.56 0.986839 0
vt 5.56 -2.78 0
vt 6.49 0.788443 0
vt 6.49 0.986839 0
vt 6.49 -2.78 0
vt 7.43 0.788443 0
vt 7.43 0.986839 0
vt 7.43 -2.78 0

# 48 vertex normals
vn 0.562772 -0.605455 -0.562772
vn -0 -0.605455 -0.795879
vn 0.53647 0 -0.843919
vn 0.217399 0 -0.976083
vn -0.562772 -0.605455 -0.562772
vn -0.795879 -0.605455 0
vn -0.603748 0 -0.797175
vn -0.976083 0 -0.217399
vn -0.562772 -0.605455 0.562772
vn 0 -0.605455 0.795879
vn -0.797175 0 0.603748
vn -0.217399 0 0.976083
vn 0.562772 -0.605455 0.562772
vn 0.603748 0 0.797175
vn 0.795879 -0.605455 0
vn 0.976083 0 0.217399
vn 0.382683 0 0.92388
vn -0.061714 0.997766 0.025563
vn 0 1 0
vn -0.065369 0.995718 0.065369
vn 0 0.995718 0.092445
vn 0.065369 0.995718 0.065369
vn 0.092445 0.995718 0
vn 0.065369 0.995718 -0.065369
vn 0 0.995718 -0.092445
vn -0.065369 0.995718 -0.065369
vn -0.092445 0.995718 0
vn 0.83147 0 0.55557
vn -0.19509 0 0.980785
vn 0.55557 0 -0.83147
vn 0.980785 0 0.19509
vn -0.83147 -0 -0.55557
vn 0.19509 0 -0.980785
vn -0.55557 0 0.83147
vn -0.980785 0 -0.19509
vn 1 0 0
vn -0.707107 0 -0.707107
vn 0 0 -1
vn -0.707107 0 0.707107
vn -1 0 0
vn 0.707107 0 0.707107
vn 0 0 1
vn 0.707106 0 -0.707107
vn 0 -1 0
vn -0.382684 0 -0.923879
vn -0.92388 0 0.382683
vn 0.92388 0 -0.382683
vn 0.707107 0 -0.707107

# Mesh 'lod_high' with 112 faces
g lod_high
usemtl material1_0
f  1/1/1 2/2/2 3/3/3
f  3/3/3 2/2/2 4/4/4
f  5/5/5 6/6/6 7/7/7
f  7/7/7 6/6/6 8/8/8
f  9/9/9 10/10/10 11/11/11
f  11/11/11 10/10/10 12/12/12
f  10/10/10 13/13/13 12/12/12
f  12/12/12 13/13/13 14/14/14
f  13/13/13 15/15/15 14/14/14
f  14/14/14 15/15/15 16/16/16
f  12/12/12 14/14/14 17/17/17
f  17/17/17 14/14/14 18/18/17
f  19/19/18 20/20/19 21/21/19
f  21/21/19 20/20/19 22/22/19
f  3/20/19 4/19/19 23/22/20
f  23/22/20 4/19/19 24/21/21
f  7/20/19 8/19/19 25/22/22
f  25/22/22 8/19/19 26/21/23
f  11/20/19 12/19/19 27/22/24
f  27/22/24 12/19/19 28/21/25
f  14/20/19 16/19/19 29/22/26
f  29/22/26 16/19/19 30/21/27
f  31/23/28 32/24/29 24/25/28
f  24/25/28 32/24/29 25/26/29
f  33/23/30 34/24/31 26/25/30
f  26/25/30 34/24/31 27/26/31
f  35/23/32 36/24/33 28/25/32
f  28/25/32 36/24/33 29/26/33
f  21/23/34 22/24/35 30/25/34
f  30/25/34 22/24/35 23/26/35
f  37/27/36 31/23/28 4/28/4
f  4/28/4 31/23/28 24/25/28
f  22/24/35 20/29/37 23/26/35
f  23/26/35 20/29/37 3/30/3
f  38/27/38 33/23/30 8/28/8
f  8/28/8 33/23/30 26/25/30
f  32/24/29 39/29/39 25/26/29
f  25/26/29 39/29/39 7/30/39
f  17/27/40 35/23/32 12/28/12
f  12/28/12 35/23/32 28/25/32
f  34/24/31 40/29/41 27/26/31
f  27/26/31 40/29/41 11/30/41
f  19/27/42 21/23/34 16/28/16
f  16/28/16 21/23/34 30/25/34
f  36/24/33 18/29/43 29/26/33
f  29/26/33 18/29/43 14/30/43
f  2/31/2 1/32/1 41/33/44
f  41/33/44 1/32/1 15/31/15
f  2/31/2 41/33/44 5/32/5
f  5/32/5 41/33/44 6/31/6
f  6/31/6 41/33/44 9/32/9
f  9/32/9 41/33/44 10/31/10
f  10/31/10 41/33/44 13/32/13
f  13/32/13 41/33/44 15/31/15
f  23/31/20 24/32/21 42/33/19
f  42/33/19 24/32/21 25/31/22
f  25/31/22 26/32/23 42/33/19
f  42/33/19 26/32/23 27/31/24
f  27/31/24 28/32/25 42/33/19
f  42/33/19 28/32/25 29/31/26
f  29/31/26 30/32/27 42/33/19
f  42/33/19 30/32/27 23/31/20
f  2/2/2 5/5/5 4/4/4
f  4/4/4 5/5/5 7/7/7
f  4/4/4 7/7/7 37/34/45
f  37/34/45 7/7/7 39/35/45
f  6/6/6 9/9/9 8/8/8
f  8/8/8 9/9/9 11/11/11
f  8/8/8 11/11/11 38/36/46
f  38/36/46 11/11/11 40/37/46
f  15/15/15 1/38/1 16/16/16
f  16/16/16 1/38/1 3/39/3
f  16/16/16 3/39/3 19/40/47
f  19/40/47 3/39/3 20/41/47
f  37/19/19 39/20/19 31/21/19
f  31/21/19 39/20/19 32/22/19
f  38/19/19 40/20/19 33/21/19
f  33/21/19 40/20/19 34/22/19
f  17/19/19 18/20/19 35/21/19
f  35/21/19 18/20/19 36/22/19
f  43/42/48 44/43/48 45/44/38
f  45/44/38 44/43/48 46/45/38
f  45/44/38 46/45/38 47/46/37
f  48/47/38 43/42/48 45/44/38
f  48/47/38 45/44/38 49/48/37
f  49/48/37 45/44/38 47/46/37
f  50/49/48 43/42/48 48/47/38
f  47/46/37 46/45/38 51/50/37
f  47/46/37 51/50/37 52/51/40
f  49/48/37 47/46/37 53/52/40
f  53/52/40 47/46/37 52/51/40
f  52/51/40 51/50/37 54/53/40
f  52/51/40 54/53/40 55/54/39
f  53/52/40 52/51/40 56/55/39
f  56/55/39 52/51/40 55/54/39
f  55/54/39 54/53/40 57/56/39
f  55/54/39 57/56/39 58/57/42
f  56/55/39 55/54/39 59/58/42
f  59/58/42 55/54/39 58/57/42
f  58/57/42 57/56/39 60/59/42
f  58/57/42 60/59/42 61/60/41
f  59/58/42 58/57/42 62/61/41
f  62/61/41 58/57/42 61/60/41
f  61/60/41 60/59/42 63/62/41
f  61/60/41 63/62/41 64/63/36
f  62/61/41 61/60/41 65/64/36
f  65/64/36 61/60/41 64/63/36
f  64/63/36 63/62/41 66/65/36
f  64/63/36 66/65/36 43/66/48
f  65/64/36 64/63/36 50/67/48
f  50/67/48 64/63/36 43/66/48
f  43/66/48 66/65/36 44/68/48

