# File produced by Open Asset Import Library (http://www.assimp.sf.net)
# (assimp v3.1.187496374)

mtllib english_corner_c2.obj.mtl

# 146 vertex positions
v  10.8535 26.9792 -7.39749
v  10.8535 -5 5.73789
v  10.8535 -5 -7.39749
v  10.8535 26.9792 5.73789
v  -7.51402 -5 5.73789
v  -7.51402 26.9792 5.73789
v  -7.51402 26.9792 -7.39749
v  -7.51402 -5 -7.39749
v  3.24877 17.0577 5.45997
v  0.911486 17.0792 5.45997
v  0.916115 17.0468 5.45997
v  0.901456 15.485 5.45997
v  1.02087 15.8064 5.45997
v  3.17832 15.4867 5.45997
v  3.00975 15.8254 5.45997
v  -6.6763 13.9609 5.45997
v  10.0093 14.0962 5.36361
v  7.54799 17.0183 5.45997
v  10.0081 14.4951 5.36088
v  7.96462 17.0145 5.45997
v  1.56182 23.8927 5.45997
v  1.51868 24.4121 5.45997
v  -4.10782 17.1252 5.45997
v  10.0064 14.9886 5.45997
v  6.4861 19.3337 5.45997
v  1.72424 25.2114 5.45997
v  -4.40521 17.1279 5.45997
v  -2.9722 19.4869 5.45997
v  -6.6763 14.3655 5.45997
v  -6.6763 14.9719 5.45997
v  10.0523 14.3822 -6.6763
v  10.0523 15.0052 -6.6763
v  10.0366 14.9995 -2.52069
v  10.0523 14.0105 -6.6763
v  10.0523 3.8958 -4.41428
v  10.0523 3.8958 -0.600531
v  10.0523 2.9641 -4.09744
v  10.0523 2.73857 -4.34715
v  10.0523 0 -6.6763
v  10.0523 2.88729 -0.850366
v  10.0523 2.64994 -0.600531
v  10.0523 0 5.45997
v  -2.17695 4.66447 -6.6763
v  1.89426 4.66447 -6.6763
v  1.89426 3.14929 -6.6763
v  -6.6763 13.8716 -6.57075
v  -2.17695 3.14929 -6.6763
v  -6.6763 0 -6.6763
v  -6.6763 14.2659 -6.56775
v  -6.6763 15.0052 -6.6763
v  1.69522 15.0052 -6.6763
v  1.62285 3.38197 -6.6763
v  -1.90553 3.38197 -6.6763
v  -6.6763 14.9934 -2.37304
v  -6.6763 3.8958 -0.600531
v  -6.6763 3.9859 -4.41428
v  -6.6763 2.64994 -0.600531
v  -6.6763 2.88729 -0.850366
v  -6.6763 0 5.45997
v  -6.6763 2.69239 -4.34715
v  -6.6763 2.9641 -4.09744
v  10.0523 -5 -6.6763
v  10.0523 -5 5.45997
v  -6.6763 -5 5.45997
v  -6.6763 -5 -6.6763
v  10.4349 16.0854 -2.46196
v  10.4349 16.0854 -7.3973
v  6.7557 20.5449 -2.43153
v  -7.05895 16.0854 -7.3973
v  -7.05895 16.0854 -2.43629
v  -3.7986 20.5449 -2.43153
v  10.4349 16.0854 6.23943
v  6.95803 20.3959 6.23943
v  7.04167 20.2922 6.23943
v  1.72945 16.0854 -7.3973
v  1.65796 20.5449 -2.43153
v  1.6549 26.9705 5.45997
v  -3.57779 20.4339 5.45997
v  1.6549 26.9705 6.23943
v  -3.6072 20.3972 6.23943
v  -7.05895 16.0854 6.23943
v  -7.05895 16.0854 5.45997
v  6.98973 20.3566 5.45997
v  1.6549 26.9705 3.07709
v  10.4349 16.0854 5.45997
v  6.46868 19.3322 6.23943
v  1.72425 25.2114 6.23943
v  -2.99302 19.4615 6.23943
v  -6.6763 14.9719 6.23943
v  9.96052 15.0052 6.23943
v  0.911389 16.5278 5.46115
v  0.911389 16.5278 5.71298
v  0.911389 20.1582 5.46115
v  0.911389 20.1582 5.71298
v  3.17485 20.1582 5.46115
v  3.17485 20.1582 5.71298
v  3.17485 16.5278 5.46115
v  3.17485 16.5278 5.71298
v  -6.56717 9.45069 -0.794657
v  -7.10405 9.45069 -0.794657
v  -6.56359 4.59565 -0.794657
v  -7.10405 4.59565 -0.794657
v  -6.56359 4.59565 -4.23211
v  -7.10405 4.59565 -4.23211
v  -6.56717 9.45069 -4.23211
v  -7.10405 9.45069 -4.23211
v  -6.40596 4.60623 -0.600531
v  -7.51402 4.60623 -0.600531
v  -6.40596 3.8958 -0.600531
v  -7.51402 3.8958 -0.600531
v  -7.51402 4.60623 -4.41428
v  -6.40596 4.60623 -4.41428
v  -6.40596 3.8958 -4.41428
v  -7.51402 3.8958 -4.41428
v  10.5108 9.45069 -4.23211
v  10.5108 9.45069 -0.794657
v  10.5108 4.59565 -4.23211
v  10.5108 4.59565 -0.794657
v  9.92729 4.60623 -0.600531
v  9.92729 3.8958 -0.600531
v  10.8535 4.60623 -0.600531
v  10.8535 3.8958 -0.600531
v  10.8535 4.60623 -4.41428
v  9.92729 4.60623 -4.41428
v  9.92729 3.8958 -4.41428
v  10.8535 3.8958 -4.41428
v  10.0621 9.45069 -0.794657
v  10.0591 4.59565 -0.794657
v  10.0591 4.59565 -4.23211
v  10.0621 9.45069 -4.23211
v  -1.90906 10.1626 -7.05479
v  1.73923 10.1626 -7.05479
v  -1.90906 5.30757 -7.05479
v  1.73923 5.30757 -7.05479
v  1.94526 5.31814 -6.47125
v  1.94526 4.60771 -6.47125
v  1.94526 5.31814 -7.39749
v  1.94526 4.60771 -7.39749
v  -2.10241 4.60771 -6.47125
v  -2.10241 5.31814 -6.47125
v  -2.10241 4.60771 -7.39749
v  -2.10241 5.31814 -7.39749
v  1.73923 10.1626 -6.60601
v  1.73923 5.30757 -6.60302
v  -1.90906 5.30757 -6.60302
v  -1.90906 10.1626 -6.60601

# 169 UV coordinates
vt 0.897965 0.918458 0
vt 0.863575 0.918667 0
vt 0.863643 0.918351 0
vt 0.863427 0.903106 0
vt 0.865184 0.906243 0
vt 0.896928 0.903122 0
vt 0.894448 0.906429 0
vt 0.751953 0.888229 0
vt 0.998047 0.889549 0
vt 0.961222 0.918073 0
vt 0.998047 0.893443 0
vt 0.967353 0.918036 0
vt 0.873143 0.985175 0
vt 0.872509 0.990245 0
vt 0.789722 0.919116 0
vt 0.998047 0.89826 0
vt 0.945598 0.940674 0
vt 0.875533 0.998047 0
vt 0.785346 0.919142 0
vt 0.806431 0.942169 0
vt 0.751953 0.892178 0
vt 0.751953 0.898097 0
vt 0.498047 0.979926 0
vt 0.498047 0.998047 0
vt 0.328221 0.998047 0
vt 0.001953 0.998047 0
vt 0.008148 0.978681 0
vt 0.49465 0.968251 0
vt 0.01269 0.965465 0
vt 0.405583 0.631898 0
vt 0.249688 0.631249 0
vt 0.392631 0.601169 0
vt 0.402839 0.593786 0
vt 0.498047 0.501953 0
vt 0.259901 0.598088 0
vt 0.249688 0.59023 0
vt 0.001953 0.501953 0
vt 0.364617 0.656222 0
vt 0.012711 0.966289 0
vt 0.243883 0.65619 0
vt 0.243883 0.60611 0
vt 0.490733 0.960806 0
vt 0.364617 0.606142 0
vt 0.0096 0.976818 0
vt 0.493186 0.973541 0
vt 0.249786 0.998047 0
vt 0.251932 0.613802 0
vt 0.356568 0.61383 0
vt 0.491335 0.975693 0
vt 0.005281 0.973745 0
vt 0.485831 0.961016 0
vt 0.007093 0.960639 0
vt 0.177857 0.998047 0
vt 0.250312 0.631085 0
vt 0.094418 0.656863 0
vt 0.250312 0.590011 0
vt 0.2401 0.597864 0
vt 0.097162 0.591837 0
vt 0.107369 0.600767 0
vt 0.001953 0.704472 0
vt 0.498047 0.710622 0
vt 0.001953 0.710622 0
vt 0.001953 0.70127 0
vt 0.001953 0.706116 0
vt 0.498047 0.779329 0
vt 0.294205 0.806691 0
vt 0.226671 0.806657 0
vt 0.001953 0.776667 0
vt 0.11072 0.285855 0
vt 0.110782 0.406471 0
vt 0.042279 0.282286 0
vt 0.109254 0.286174 0
vt 0.109134 0.411887 0
vt 0.037971 0.414604 0
vt 0.110611 0.287815 0
vt 0.044424 0.285144 0
vt 0.046016 0.285208 0
vt 0.109569 0.299779 0
vt 0.109888 0.484325 0
vt 0.03424 0.3031 0
vt 0.034439 0.417681 0
vt 0.007977 0.428687 0
vt 0.111937 0.42452 0
vt 0.007958 0.448439 0
vt 0.112503 0.444248 0
vt 0.042298 0.448211 0
vt 0.041732 0.428483 0
vt 0.110875 0.445463 0
vt 0.110894 0.425711 0
vt 0.108381 0.288167 0
vt 0.108995 0.307241 0
vt 0.007431 0.284094 0
vt 0.007441 0.303144 0
vt 0.109252 0.26979 0
vt 0.109569 0.452596 0
vt 0.034055 0.34887 0
vt 0.03424 0.455917 0
vt 0.111667 0.48583 0
vt 0.006356 0.373331 0
vt 0.111468 0.371248 0
vt 0.111283 0.264201 0
vt 0.110126 0.281838 0
vt 0.111937 0.481986 0
vt 0.008034 0.42577 0
vt 0.007977 0.486153 0
vt 0.11062 0.306864 0
vt 0.045037 0.304218 0
vt 0.110109 0.281103 0
vt 0.109919 0.481195 0
vt 0.038946 0.28382 0
vt 0.040757 0.483967 0
vt 0.111969 0.281548 0
vt 0.109211 0.474229 0
vt 0.010415 0.27745 0
vt 0.010445 0.335686 0
vt 0.109877 0.284194 0
vt 0.109976 0.477799 0
vt 0.044294 0.281548 0
vt 0.041535 0.474229 0
vt 0.998047 0.435547 0
vt 0.998047 0.376953 0
vt 0.939453 0.376953 0
vt 0.995117 0.376953 0
vt 0.939611 0.43452 0
vt 0.939453 0.435547 0
vt 0.97167 0.435547 0
vt 0.971581 0.376953 0
vt 0.965919 0.435547 0
vt 0.96583 0.376953 0
vt 0.941638 0.376953 0
vt 0.939453 0.434528 0
vt 0.982769 0.376953 0
vt 0.950632 0.435547 0
vt 0.951094 0.376953 0
vt 0.986867 0.435547 0
vt 0.981603 0.376953 0
vt 0.940011 0.376953 0
vt 0.955115 0.376953 0
vt 0.971932 0.376953 0
vt 0.971896 0.435547 0
vt 0.965608 0.376953 0
vt 0.965567 0.435547 0
vt 0.956627 0.376953 0
vt 0.985851 0.376953 0
vt 0.951649 0.435547 0
vt 0.98534 0.435547 0
vt 0.997585 0.435547 0
vt 0.940818 0.376953 0
vt 0.814453 0.251953 0
vt 0.935547 0.251953 0
vt 0.814453 0.310547 0
vt 0.935547 0.310547 0
vt 0.440763 0.425394 0
vt 0.433683 0.425394 0
vt 0.440814 0.251953 0
vt 0.433683 0.251953 0
vt 0.814453 0.418417 0
vt 0.935547 0.418417 0
vt 0.814453 0.449309 0
vt 0.935547 0.449309 0
vt 0.935547 0.461335 0
vt 0.935547 0.492228 0
vt 0.814453 0.461335 0
vt 0.814453 0.492228 0
vt 0.384466 0.432457 0
vt 0.384466 0.251953 0
vt 0.48697 0.432747 0
vt 0.48697 0.251953 0
vt 0.48697 0.252244 0

# 70 vertex normals
vn 1 0 0
vn 0 0 1
vn 0 0 -1
vn -1 -0 -0
vn 0.002096 -0.002812 0.999994
vn 0.001248 0.00024 0.999999
vn 0.001751 0.000553 0.999998
vn 0.002655 -0.002029 0.999994
vn 0.002042 0.000645 0.999998
vn -0.00027 -0.011995 0.999928
vn 0.007279 -0.00878 0.999935
vn -0.025032 -0.04526 0.998662
vn -0.012511 -0.02262 0.999666
vn -0.006126 -0.006584 0.99996
vn -0.072763 -0.073333 0.99465
vn -0.036431 -0.036716 0.998661
vn 0.999992 0.001394 0.003663
vn 0.99848 0.055017 0.003405
vn 0.999016 -0.0443 0.002175
vn 0.968333 -0.249355 0.012371
vn 0.999995 0.00235 0.002264
vn 0.99999 0.003287 0.002867
vn 1 0.000464 0.000772
vn 0.999998 0.001267 0.001288
vn 1 0.000254 0.000354
vn 1 0.000803 0.000516
vn 0.999999 0.000957 0.000806
vn -0.003494 0.003874 -0.999986
vn -0.003269 -0.005371 -0.99998
vn -0.001463 0.001914 -0.999997
vn -0.00564 -0.003084 -0.999979
vn -0.002032 0.00196 -0.999996
vn -0.001778 0.001715 -0.999997
vn -0.004698 -0.037786 -0.999275
vn -0.000825 0.011323 -0.999936
vn -0.000739 -0.141816 -0.989893
vn -0.998843 0.048089 0.000261
vn -0.999968 0.007733 0.001932
vn -0.99899 -0.044905 0.001794
vn 1 0.00043 0.000709
vn 0.001002 0.000445 0.999999
vn 0.986367 0.164562 0
vn 0.89165 -0.134147 -0.432395
vn 0.56476 0.747419 -0.349873
vn -0.47583 0.786433 -0.393838
vn -0.98833 0.152274 0.004099
vn -0.581329 0.738461 -0.341661
vn 0.989639 0.142425 0.018184
vn 0.778352 0.627828 0
vn 0 0.744017 -0.66816
vn 0 0.684886 -0.728651
vn -0.77852 0.62751 0.011743
vn -0.782985 0.621964 0.009716
vn -0.780667 0.624948 0
vn -0.98524 0.171178 0
vn -0.986614 0.162974 0.005647
vn 0.777733 0.62859 -0.002553
vn 0.7789 0.62714 -0.003137
vn 0.001549 0.931961 -0.362555
vn 0.988252 0.15274 0.005402
vn 0 -0.55518 -0.83173
vn -0.612645 -0.576594 -0.540561
vn -0.945713 -0.325003 -0
vn 0.773112 -0.634269 0
vn -0.777486 -0.62866 -0.017386
vn -0.77735 -0.628552 -0.025467
vn 0.923243 -0.382941 0.031265
vn -0.77757 -0.628727 -0.009304
vn 0 1 0
vn 0 -1 0

# Mesh 'collision_building' with 8 faces
g collision_building
usemtl JoinedMaterial_#2
f  1//1 2//1 3//1
f  1//1 4//1 2//1
f  4//2 5//2 2//2
f  4//2 6//2 5//2
f  7//3 3//3 8//3
f  7//3 1//3 3//3
f  6//4 8//4 5//4
f  6//4 7//4 8//4

# Mesh 'lod_high' with 186 faces
g lod_high
usemtl JoinedMaterial_#2
f  9/1/5 10/2/2 11/3/6
f  12/4/7 13/5/2 11/3/6
f  11/3/6 13/5/2 9/1/5
f  14/6/8 9/1/5 15/7/2
f  15/7/2 9/1/5 13/5/2
f  12/4/7 15/7/2 13/5/2
f  11/3/6 16/8/9 12/4/7
f  14/6/8 15/7/2 12/4/7
f  17/9/10 18/10/11 14/6/8
f  14/6/8 18/10/11 9/1/5
f  19/11/12 20/12/13 17/9/10
f  17/9/10 20/12/13 18/10/11
f  20/12/13 21/13/14 18/10/11
f  9/1/5 18/10/11 21/13/14
f  9/1/5 21/13/14 10/2/2
f  22/14/2 23/15/2 21/13/14
f  22/14/2 21/13/14 20/12/13
f  10/2/2 21/13/14 23/15/2
f  19/11/12 24/16/15 20/12/13
f  20/12/13 24/16/15 25/17/16
f  20/12/13 25/17/16 22/14/2
f  22/14/2 25/17/16 26/18/2
f  22/14/2 26/18/2 27/19/2
f  27/19/2 23/15/2 22/14/2
f  27/19/2 16/8/9 23/15/2
f  10/2/2 23/15/2 11/3/6
f  11/3/6 23/15/2 16/8/9
f  27/19/2 26/18/2 28/20/2
f  27/19/2 28/20/2 29/21/2
f  29/21/2 16/8/9 27/19/2
f  29/21/2 28/20/2 30/22/2
f  31/23/17 32/24/18 33/25/19
f  24/26/20 31/23/17 33/25/19
f  19/27/17 34/28/21 31/23/17
f  19/27/17 31/23/17 24/26/20
f  17/29/22 34/28/21 19/27/17
f  17/29/22 35/30/23 34/28/21
f  36/31/24 35/30/23 17/29/22
f  35/30/23 37/32/1 38/33/1
f  38/33/1 39/34/25 35/30/23
f  35/30/23 39/34/25 34/28/21
f  40/35/1 38/33/1 37/32/1
f  40/35/1 37/32/1 36/31/24
f  36/31/24 37/32/1 35/30/23
f  41/36/26 39/34/25 38/33/1
f  41/36/26 38/33/1 40/35/1
f  42/37/27 39/34/25 41/36/26
f  42/37/27 41/36/26 17/29/22
f  40/35/1 36/31/24 41/36/26
f  41/36/26 36/31/24 17/29/22
f  43/38/28 34/39/29 44/40/30
f  34/39/29 45/41/3 44/40/30
f  46/42/31 34/39/29 43/38/28
f  47/43/32 48/34/33 43/38/28
f  43/38/28 48/34/33 46/42/31
f  31/44/34 34/39/29 46/42/31
f  49/45/34 31/44/34 46/42/31
f  32/26/35 31/44/34 49/45/34
f  50/24/35 51/46/36 49/45/34
f  49/45/34 51/46/36 32/26/35
f  39/37/3 48/34/33 45/41/3
f  45/41/3 48/34/33 47/43/32
f  39/37/3 45/41/3 34/39/29
f  44/40/30 45/41/3 52/47/3
f  45/41/3 47/43/32 52/47/3
f  52/47/3 47/43/32 53/48/3
f  52/47/3 53/48/3 44/40/30
f  47/43/32 43/38/28 53/48/3
f  44/40/30 53/48/3 43/38/28
f  29/49/4 50/26/37 49/50/4
f  29/49/4 49/50/4 16/51/4
f  16/51/4 49/50/4 46/52/4
f  30/24/38 54/53/39 29/49/4
f  29/49/4 54/53/39 50/26/37
f  16/51/4 46/52/4 55/54/4
f  55/54/4 46/52/4 56/55/4
f  57/56/4 55/54/4 58/57/4
f  16/51/4 55/54/4 59/34/4
f  59/34/4 55/54/4 57/56/4
f  59/34/4 57/56/4 48/37/4
f  48/37/4 57/56/4 60/58/4
f  58/57/4 61/59/4 57/56/4
f  57/56/4 61/59/4 60/58/4
f  55/54/4 56/55/4 58/57/4
f  58/57/4 56/55/4 61/59/4
f  56/55/4 60/58/4 61/59/4
f  48/37/4 60/58/4 46/52/4
f  39/37/25 42/34/27 62/60/40
f  62/60/40 42/34/27 63/61/40
f  42/37/41 59/34/41 63/62/2
f  63/62/2 59/34/41 64/61/2
f  48/37/33 39/34/3 65/63/3
f  65/63/3 39/34/3 62/61/3
f  59/37/4 48/34/4 64/64/4
f  64/64/4 48/34/4 65/61/4
f  46/52/4 60/58/4 56/55/4
f  17/65/10 14/66/8 42/34/41
f  42/34/41 14/66/8 12/67/7
f  42/34/41 12/67/7 59/37/41
f  59/37/41 12/67/7 16/68/9
f  66/69/42 67/70/43 68/71/44
f  69/72/45 70/73/46 71/74/47
f  72/75/48 73/76/49 74/77/49
f  75/78/50 69/79/45 76/80/51
f  76/80/51 69/79/45 71/81/47
f  77/82/52 78/83/53 79/84/54
f  79/84/54 78/83/53 80/85/54
f  80/86/54 78/87/53 81/88/55
f  81/88/55 78/87/53 82/89/56
f  73/90/49 83/91/57 79/92/49
f  79/92/49 83/91/57 77/93/58
f  67/94/50 75/95/50 68/96/44
f  68/96/44 75/95/50 76/97/51
f  71/98/47 84/99/59 76/100/51
f  76/100/51 84/99/59 68/101/44
f  71/102/47 78/103/53 84/104/59
f  84/104/59 78/103/53 77/105/52
f  85/106/60 83/107/57 72/75/48
f  72/75/48 83/107/57 73/76/49
f  70/108/46 82/109/56 71/110/47
f  71/110/47 82/109/56 78/111/53
f  83/112/57 68/113/44 77/114/58
f  77/114/58 68/113/44 84/115/59
f  85/116/60 66/117/42 83/118/57
f  83/118/57 66/117/42 68/119/44
f  73/120/2 86/121/2 74/120/2
f  51/122/36 50/123/35 75/124/61
f  75/124/61 50/123/35 69/120/62
f  79/120/2 80/125/2 87/121/2
f  87/121/2 80/125/2 88/122/2
f  82/126/56 30/127/38 81/128/55
f  81/128/55 30/127/38 89/129/63
f  28/122/64 26/121/64 88/125/64
f  88/125/64 26/121/64 87/120/64
f  32/130/35 51/121/36 67/131/43
f  67/131/43 51/121/36 75/120/61
f  30/122/64 28/132/64 89/125/64
f  89/125/64 28/132/64 88/120/64
f  74/125/2 86/122/2 72/120/2
f  72/120/2 86/122/2 90/121/2
f  88/121/2 80/120/2 89/122/2
f  89/122/2 80/120/2 81/125/2
f  66/133/42 33/134/19 67/135/43
f  67/135/43 33/134/19 32/136/18
f  54/137/39 30/121/38 70/125/46
f  70/125/46 30/121/38 82/120/56
f  79/125/2 87/122/2 73/120/2
f  73/120/2 87/122/2 86/121/2
f  25/138/65 24/121/66 86/125/65
f  86/125/65 24/121/66 90/120/66
f  24/139/20 85/140/60 90/141/67
f  90/141/67 85/140/60 72/142/48
f  50/143/37 54/144/39 69/145/62
f  69/145/62 54/144/39 70/146/46
f  85/125/60 24/122/20 66/147/42
f  66/147/42 24/122/20 33/121/19
f  26/148/68 25/121/65 87/125/68
f  87/125/68 25/121/65 86/120/65
f  91/149/4 92/150/4 93/151/4
f  93/151/4 92/150/4 94/152/4
f  93/149/69 94/150/69 95/151/69
f  95/151/69 94/150/69 96/152/69
f  95/149/1 96/150/1 97/151/1
f  97/151/1 96/150/1 98/152/1
f  97/149/70 98/150/70 91/151/70
f  91/151/70 98/150/70 92/152/70
f  92/149/2 98/150/2 94/151/2
f  94/151/2 98/150/2 96/152/2
f  99/153/2 100/154/2 101/155/2
f  101/155/2 100/154/2 102/156/2
f  103/155/3 104/156/3 105/153/3
f  105/153/3 104/156/3 106/154/3
f  106/156/69 100/154/69 105/155/69
f  105/155/69 100/154/69 99/153/69
f  107/157/2 108/158/2 109/159/2
f  109/159/2 108/158/2 110/160/2
f  108/161/69 107/162/69 111/163/69
f  111/163/69 107/162/69 112/164/69
f  113/157/3 114/158/3 112/159/3
f  112/159/3 114/158/3 111/160/3
f  114/158/70 113/160/70 110/157/70
f  110/157/70 113/160/70 109/159/70
f  110/158/4 108/160/4 114/157/4
f  114/157/4 108/160/4 111/159/4
f  106/165/4 104/166/4 100/167/4
f  100/167/4 104/166/4 102/168/4

# Mesh 'group1' with 18 faces
g group1
usemtl JoinedMaterial_#2
f  115/165/1 116/167/1 117/166/1
f  117/166/1 116/167/1 118/169/1
f  119/157/2 120/159/2 121/158/2
f  121/158/2 120/159/2 122/160/2
f  121/161/69 123/163/69 119/162/69
f  119/162/69 123/163/69 124/164/69
f  125/157/3 124/159/3 126/158/3
f  126/158/3 124/159/3 123/160/3
f  126/158/70 122/157/70 125/160/70
f  125/160/70 122/157/70 120/159/70
f  122/158/1 126/157/1 121/160/1
f  121/160/1 126/157/1 123/159/1
f  127/153/2 128/155/2 116/154/2
f  116/154/2 128/155/2 118/156/2
f  129/155/3 130/153/3 117/156/3
f  117/156/3 130/153/3 115/154/3
f  115/156/69 130/155/69 116/154/69
f  116/154/69 130/155/69 127/153/69

# Mesh 'group2' with 18 faces
g group2
usemtl JoinedMaterial_#2
f  131/165/3 132/167/3 133/166/3
f  133/166/3 132/167/3 134/168/3
f  135/157/1 136/159/1 137/158/1
f  137/158/1 136/159/1 138/160/1
f  139/157/4 140/159/4 141/158/4
f  141/158/4 140/159/4 142/160/4
f  141/158/70 138/157/70 139/160/70
f  139/160/70 138/157/70 136/159/70
f  138/158/3 141/157/3 137/160/3
f  137/160/3 141/157/3 142/159/3
f  137/161/69 142/163/69 135/162/69
f  135/162/69 142/163/69 140/164/69
f  143/153/1 144/155/1 132/154/1
f  132/154/1 144/155/1 134/156/1
f  145/155/4 146/153/4 133/156/4
f  133/156/4 146/153/4 131/154/4
f  131/156/69 146/155/69 132/154/69
f  132/154/69 146/155/69 143/153/69

