# File produced by Open Asset Import Library (http://www.assimp.sf.net)
# (assimp v3.1.187496374)

mtllib english_wall_gate.obj.mtl

# 30 vertex positions
v  0 0.197363 0.594541
v  14.9358 30.1974 0.594541
v  0 30.1974 0.594541
v  14.9358 0.197363 0.594541
v  0 30.1974 -0.596634
v  14.9358 0.197363 -0.596634
v  0 0.197363 -0.596634
v  14.9358 30.1974 -0.596634
v  7.61556 0.197363 0
v  15.1156 0.197363 0
v  7.61556 30.1974 0
v  15.1156 30.1974 0
v  0.115563 0.197363 0
v  0.115563 30.1974 0
v  -0.023546 0.197363 0.228657
v  0.273546 0.197363 0.228657
v  -0.023546 25.6832 0.228657
v  0.273546 25.6832 0.228657
v  -0.023546 25.6832 -0.228657
v  0.273546 25.6832 -0.228657
v  -0.023546 0.197363 -0.228657
v  0.273546 0.197363 -0.228657
v  14.8462 0.197363 0.228657
v  15.1433 0.197363 0.228657
v  14.8462 25.6832 0.228657
v  15.1433 25.6832 0.228657
v  14.8462 25.6832 -0.228657
v  15.1433 25.6832 -0.228657
v  14.8462 0.197363 -0.228657
v  15.1433 0.197363 -0.228657

# 8 UV coordinates
vt 0.253906 0.00390601 0
vt 0.496094 0.00390601 0
vt 0.253906 0.995102 0
vt 0.496094 0.995102 0
vt 0.501953 0.064453 0
vt 0.748047 0.064453 0
vt 0.501953 0.123047 0
vt 0.748047 0.123047 0

# 10 vertex normals
vn 0 0 1
vn 0 0 -1
vn 1 0 0
vn -1 0 0
vn -0.322131 0 0.946695
vn -0.322131 0 -0.946695
vn 0 1 0
vn 0 -1 0
vn 0.322131 0 0.946695
vn 0.322131 0 -0.946695

# Mesh 'collision' with 8 faces
g collision
usemtl material1_0
f  1//1 2//1 3//1
f  1//1 4//1 2//1
f  5//2 6//2 7//2
f  5//2 8//2 6//2
f  4//3 8//3 2//3
f  4//3 6//3 8//3
f  7//4 3//4 5//4
f  7//4 1//4 3//4

# Mesh 'lod_high' with 4 faces
g lod_high
usemtl material1_0
f  9/1/1 10/2/1 11/3/1
f  11/3/1 10/2/1 12/4/1
f  13/1/1 9/2/1 14/3/1
f  14/3/1 9/2/1 11/4/1

# Mesh 'lod_high' with 24 faces
g lod_high
usemtl material1_1
f  15/5/1 16/6/5 17/7/1
f  17/7/1 16/6/5 18/8/5
f  19/5/2 20/6/6 21/7/2
f  21/7/2 20/6/6 22/8/6
f  17/5/7 18/6/7 19/7/7
f  19/7/7 18/6/7 20/8/7
f  21/5/8 22/6/8 15/7/8
f  15/7/8 22/6/8 16/8/8
f  16/5/3 22/6/3 18/7/3
f  18/7/3 22/6/3 20/8/3
f  21/5/4 15/6/4 19/7/4
f  19/7/4 15/6/4 17/8/4
f  23/5/9 24/6/1 25/7/9
f  25/7/9 24/6/1 26/8/1
f  27/5/10 28/6/2 29/7/10
f  29/7/10 28/6/2 30/8/2
f  25/5/7 26/6/7 27/7/7
f  27/7/7 26/6/7 28/8/7
f  29/5/8 30/6/8 23/7/8
f  23/7/8 30/6/8 24/8/8
f  24/5/3 30/6/3 26/7/3
f  26/7/3 30/6/3 28/8/3
f  29/5/4 23/6/4 27/7/4
f  27/7/4 23/6/4 25/8/4

