# File produced by Open Asset Import Library (http://www.assimp.sf.net)
# (assimp v3.1.187496374)

mtllib english_wall_gate_r.obj.mtl

# 32 vertex positions
v  -15.1858 0.197363 1.33677
v  1.05886 30.1974 1.33677
v  -15.1858 30.1974 1.33677
v  1.05886 0.197363 1.33677
v  -15.1858 30.1974 -1.10189
v  1.05886 0.197363 -2.89536
v  -15.1858 0.197363 -1.10189
v  1.05886 30.1974 -2.89536
v  -7.61556 0.197363 0
v  -7.61556 30.1974 0
v  -15.1156 0.197363 0
v  -15.1156 30.1974 0
v  -0.115563 0.197363 0
v  -0.115563 30.1974 0
v  1.05886 0.197363 -1.57596
v  1.05886 30.1974 -1.57596
v  -15.2774 0.197363 0.228657
v  -14.9803 0.197363 0.228657
v  -15.2774 25.6832 0.228657
v  -14.9803 25.6832 0.228657
v  -15.2774 25.6832 -0.228657
v  -14.9803 25.6832 -0.228657
v  -15.2774 0.197363 -0.228657
v  -14.9803 0.197363 -0.228657
v  -0.379082 0.197363 0.228657
v  -0.081989 0.197363 0.228657
v  -0.379082 25.6832 0.228657
v  -0.081989 25.6832 0.228657
v  -0.379082 25.6832 -0.228657
v  -0.081989 25.6832 -0.228657
v  -0.379082 0.197363 -0.228657
v  -0.081989 0.197363 -0.228657

# 11 UV coordinates
vt 0.253906 0.00390601 0
vt 0.253906 0.995102 0
vt 0.496094 0.00390601 0
vt 0.496094 0.995102 0
vt 0.263831 0.00390601 0
vt 0.263831 0.996094 0
vt 0.253906 0.996094 0
vt 0.501953 0.064453 0
vt 0.748047 0.064453 0
vt 0.501953 0.123047 0
vt 0.748047 0.123047 0

# 14 vertex normals
vn 0 0 1
vn -0.109737 -0 -0.993961
vn 1 0 0
vn -1 0 0
vn 0.357075 0 0.934076
vn 0.801839 0 0.59754
vn 0 0 -1
vn -0.357075 0 -0.934076
vn -0.801839 0 -0.59754
vn -0.322131 0 0.946695
vn -0.322131 0 -0.946695
vn 0 1 0
vn 0.322131 0 0.946695
vn 0.322131 0 -0.946695

# Mesh 'collision' with 8 faces
g collision
usemtl material2_0
f  1//1 2//1 3//1
f  1//1 4//1 2//1
f  5//2 6//2 7//2
f  5//2 8//2 6//2
f  4//3 8//3 2//3
f  4//3 6//3 8//3
f  7//4 3//4 5//4
f  7//4 1//4 3//4

# Mesh 'lod_high' with 12 faces
g lod_high
usemtl material2_0
f  9/1/1 10/2/1 11/3/1
f  11/3/1 10/2/1 12/4/1
f  13/1/5 14/2/5 9/3/1
f  9/3/1 14/2/5 10/4/1
f  13/5/5 15/1/6 14/6/5
f  14/6/5 15/1/6 16/7/6
f  9/1/7 11/3/7 10/2/7
f  10/2/7 11/3/7 12/4/7
f  13/1/8 9/3/7 14/2/8
f  14/2/8 9/3/7 10/4/7
f  13/5/8 14/6/8 15/1/9
f  15/1/9 14/6/8 16/7/9

# Mesh 'lod_high' with 20 faces
g lod_high
usemtl material2_1
f  17/8/1 18/9/10 19/10/1
f  19/10/1 18/9/10 20/11/10
f  21/8/7 22/9/11 23/10/7
f  23/10/7 22/9/11 24/11/11
f  19/8/12 20/9/12 21/10/12
f  21/10/12 20/9/12 22/11/12
f  18/8/3 24/9/3 20/10/3
f  20/10/3 24/9/3 22/11/3
f  23/8/4 17/9/4 21/10/4
f  21/10/4 17/9/4 19/11/4
f  25/8/13 26/9/1 27/10/13
f  27/10/13 26/9/1 28/11/1
f  29/8/14 30/9/7 31/10/14
f  31/10/14 30/9/7 32/11/7
f  27/8/12 28/9/12 29/10/12
f  29/10/12 28/9/12 30/11/12
f  26/8/3 32/9/3 28/10/3
f  28/10/3 32/9/3 30/11/3
f  31/8/4 25/9/4 29/10/4
f  29/10/4 25/9/4 27/11/4

