# File produced by Open Asset Import Library (http://www.assimp.sf.net)
# (assimp v3.1.187496374)

mtllib LowWallStucco_100.obj.mtl

# 50 vertex positions
v  80 -2 0.499623
v  90 -2 0.499623
v  80 5 0.499623
v  90 5 0.499623
v  80 -2 -0.499462
v  80 5 -0.499462
v  90 -2 -0.499462
v  90 5 -0.499462
v  100 -2 0.5
v  100 5 0.5
v  100 -2 -0.498924
v  100 5 -0.498924
v  60 -2 0.499812
v  70 -2 0.499623
v  60 5 0.499812
v  70 5 0.499623
v  60 -2 -0.499193
v  60 5 -0.499193
v  70 -2 -0.499462
v  70 5 -0.499462
v  40 -2 0.499623
v  50 -2 0.499623
v  40 5 0.499623
v  50 5 0.499623
v  40 -2 -0.499462
v  40 5 -0.499462
v  50 -2 -0.499462
v  50 5 -0.499462
v  20 -2 0.499623
v  30 -2 0.499623
v  20 5 0.499623
v  30 5 0.499623
v  20 -2 -0.499462
v  20 5 -0.499462
v  30 -2 -0.499462
v  30 5 -0.499462
v  0 -2 0.499247
v  9.99997 -2 0.499623
v  0 5 0.499247
v  9.99997 5 0.499623
v  0 -2 -0.5
v  0 5 -0.5
v  10 -2 -0.499462
v  10 5 -0.499462
v  100 -2 0.499247
v  100 5 0.499247
v  0 -2 -0.500754
v  0 5 -0.500754
v  100 5 -0.500754
v  100 -2 -0.500754

# 14 UV coordinates
vt 0.251953 0.751953 0
vt 0.498738 0.751953 0
vt 0.251953 0.969826 0
vt 0.498738 0.969826 0
vt 0.251953 0.969878 0
vt 0.498757 0.751953 0
vt 0.498757 0.969878 0
vt 0.498757 0.998047 0
vt 0.251953 0.998047 0
vt 0.301187 0.969826 0
vt 0.301187 0.751953 0
vt 0.498757 0.969826 0
vt 0.449524 0.969826 0
vt 0.449524 0.751953 0

# 5 vertex normals
vn 0 0 1
vn 0 0 -1
vn 0 1 0
vn 1 0 0
vn -1 0 0

# Mesh 'lod_high' with 64 faces
g lod_high
usemtl material1_0
f  1/1/1 2/2/1 3/3/1
f  3/3/1 2/2/1 4/4/1
f  5/1/2 6/5/2 7/6/2
f  7/6/2 6/5/2 8/7/2
f  2/1/1 9/2/1 4/3/1
f  4/3/1 9/2/1 10/4/1
f  7/1/2 8/5/2 11/6/2
f  11/6/2 8/5/2 12/7/2
f  13/1/1 14/2/1 15/3/1
f  15/3/1 14/2/1 16/4/1
f  17/1/2 18/5/2 19/6/2
f  19/6/2 18/5/2 20/7/2
f  14/1/1 1/2/1 16/3/1
f  16/3/1 1/2/1 3/4/1
f  19/1/2 20/5/2 5/6/2
f  5/6/2 20/5/2 6/7/2
f  21/1/1 22/2/1 23/3/1
f  23/3/1 22/2/1 24/4/1
f  25/1/2 26/5/2 27/6/2
f  27/6/2 26/5/2 28/7/2
f  22/1/1 13/2/1 24/3/1
f  24/3/1 13/2/1 15/4/1
f  27/1/2 28/5/2 17/6/2
f  17/6/2 28/5/2 18/7/2
f  29/1/1 30/2/1 31/3/1
f  31/3/1 30/2/1 32/4/1
f  33/1/2 34/5/2 35/6/2
f  35/6/2 34/5/2 36/7/2
f  30/1/1 21/2/1 32/3/1
f  32/3/1 21/2/1 23/4/1
f  35/1/2 36/5/2 25/6/2
f  25/6/2 36/5/2 26/7/2
f  37/1/1 38/2/1 39/3/1
f  39/3/1 38/2/1 40/4/1
f  41/1/2 42/5/2 43/6/2
f  43/6/2 42/5/2 44/7/2
f  38/1/1 29/2/1 40/3/1
f  40/3/1 29/2/1 31/4/1
f  43/1/2 44/5/2 33/6/2
f  33/6/2 44/5/2 34/7/2
f  4/8/3 8/7/3 3/9/3
f  3/9/3 8/7/3 6/5/3
f  10/8/3 12/7/3 4/9/3
f  4/9/3 12/7/3 8/5/3
f  10/10/4 9/11/4 12/3/4
f  12/3/4 9/11/4 11/1/4
f  16/8/3 20/7/3 15/9/3
f  15/9/3 20/7/3 18/5/3
f  3/8/3 6/7/3 16/9/3
f  16/9/3 6/7/3 20/5/3
f  24/8/3 28/7/3 23/9/3
f  23/9/3 28/7/3 26/5/3
f  15/8/3 18/7/3 24/9/3
f  24/9/3 18/7/3 28/5/3
f  32/8/3 36/7/3 31/9/3
f  31/9/3 36/7/3 34/5/3
f  23/8/3 26/7/3 32/9/3
f  32/9/3 26/7/3 36/5/3
f  40/8/3 44/7/3 39/9/3
f  39/9/3 44/7/3 42/5/3
f  42/12/5 41/6/5 39/13/5
f  39/13/5 41/6/5 37/14/5
f  31/8/3 34/7/3 40/9/3
f  40/9/3 34/7/3 44/5/3

# Mesh 'collision_wall' with 4 faces
g collision_wall
usemtl material1_0
f  37//1 45//1 46//1
f  37//1 46//1 39//1
f  47//2 48//2 49//2
f  47//2 49//2 50//2

