# File produced by Open Asset Import Library (http://www.assimp.sf.net)
# (assimp v3.1.187496374)

mtllib LowWallStone_60.obj.mtl

# 32 vertex positions
v  40 -2 0.499623
v  50 -2 0.499623
v  40 5 0.499623
v  50 5 0.499623
v  40 -2 -0.499462
v  40 5 -0.499462
v  50 -2 -0.499462
v  50 5 -0.499462
v  60 -2 0.5
v  60 5 0.5
v  60 -2 -0.498924
v  60 5 -0.498924
v  20 -2 0.499623
v  30 -2 0.499623
v  20 5 0.499623
v  30 5 0.499623
v  20 -2 -0.499462
v  20 5 -0.499462
v  30 -2 -0.499462
v  30 5 -0.499462
v  0 -2 0.499247
v  9.99997 -2 0.499623
v  0 5 0.499247
v  9.99997 5 0.499623
v  0 -2 -0.5
v  0 5 -0.5
v  10 -2 -0.499462
v  10 5 -0.499462
v  0 -2 0.5
v  0 5 0.5
v  60 5 -0.5
v  60 -2 -0.5

# 16 UV coordinates
vt 0.001953 0.501953 0
vt 0.248028 0.501953 0
vt 0.001953 0.97624 0
vt 0.248028 0.97624 0
vt 0.001953 0.976344 0
vt 0.248047 0.501953 0
vt 0.248047 0.976344 0
vt 0.248047 0.985845 0
vt 0.248047 0.967192 0
vt 0.001953 0.985845 0
vt 0.001953 0.967192 0
vt 0.051045 0.97624 0
vt 0.051045 0.501953 0
vt 0.248047 0.97624 0
vt 0.198955 0.97624 0
vt 0.198955 0.501953 0

# 5 vertex normals
vn 0 0 1
vn 0 0 -1
vn 0 1 0
vn 1 0 0
vn -1 0 0

# Mesh 'lod_high' with 40 faces
g lod_high
usemtl material1_0
f  1/1/1 2/2/1 3/3/1
f  3/3/1 2/2/1 4/4/1
f  5/1/2 6/5/2 7/6/2
f  7/6/2 6/5/2 8/7/2
f  2/1/1 9/2/1 4/3/1
f  4/3/1 9/2/1 10/4/1
f  7/1/2 8/5/2 11/6/2
f  11/6/2 8/5/2 12/7/2
f  13/1/1 14/2/1 15/3/1
f  15/3/1 14/2/1 16/4/1
f  17/1/2 18/5/2 19/6/2
f  19/6/2 18/5/2 20/7/2
f  14/1/1 1/2/1 16/3/1
f  16/3/1 1/2/1 3/4/1
f  19/1/2 20/5/2 5/6/2
f  5/6/2 20/5/2 6/7/2
f  21/1/1 22/2/1 23/3/1
f  23/3/1 22/2/1 24/4/1
f  25/1/2 26/5/2 27/6/2
f  27/6/2 26/5/2 28/7/2
f  22/1/1 13/2/1 24/3/1
f  24/3/1 13/2/1 15/4/1
f  27/1/2 28/5/2 17/6/2
f  17/6/2 28/5/2 18/7/2
f  4/8/3 8/9/3 3/10/3
f  3/10/3 8/9/3 6/11/3
f  10/8/3 12/9/3 4/10/3
f  4/10/3 12/9/3 8/11/3
f  10/12/4 9/13/4 12/3/4
f  12/3/4 9/13/4 11/1/4
f  16/8/3 20/9/3 15/10/3
f  15/10/3 20/9/3 18/11/3
f  3/8/3 6/9/3 16/10/3
f  16/10/3 6/9/3 20/11/3
f  24/8/3 28/9/3 23/10/3
f  23/10/3 28/9/3 26/11/3
f  26/14/5 25/6/5 23/15/5
f  23/15/5 25/6/5 21/16/5
f  15/8/3 18/9/3 24/10/3
f  24/10/3 18/9/3 28/11/3

# Mesh 'collision_wall' with 4 faces
g collision_wall
usemtl material1_0
f  29//1 9//1 10//1
f  29//1 10//1 30//1
f  25//2 26//2 31//2
f  25//2 31//2 32//2

