# File produced by Open Asset Import Library (http://www.assimp.sf.net)
# (assimp v3.1.187496374)

mtllib LowWallStucco_Corner.obj.mtl

# 8 vertex positions
v  0.004789 5.5 0.5
v  0.653079 5.5 -0.202876
v  0 5.5 -0.5
v  1 5.5 0.5
v  1 -2 0.5
v  0 -2 0.5
v  0 -2 -0.5
v  0.653079 -2 -0.202876

# 13 UV coordinates
vt 0.368676 0.99634 0
vt 0.386455 0.968531 0
vt 0.352823 0.968531 0
vt 0.283471 0.751953 0
vt 0.283471 0.973438 0
vt 0.251953 0.751953 0
vt 0.251953 0.973438 0
vt 0.289977 0.751953 0
vt 0.289977 0.973438 0
vt 0.281662 0.751953 0
vt 0.281662 0.973438 0
vt 0.314831 0.751953 0
vt 0.314831 0.973438 0

# 7 vertex normals
vn 0 1 0
vn 0 0 1
vn -0.999998 0.000255 0.001916
vn -0.999997 0.000319 0.002395
vn 0.599118 0 -0.80066
vn 0.695874 0 -0.718164
vn 0.793097 0 -0.609095

# Mesh '_' with 10 faces
g _
usemtl material1_0
f  1/1/1 2/2/1 3/3/1
f  1/1/1 4/2/1 2/3/1
f  5/4/2 4/5/2 6/6/2
f  6/6/2 4/5/2 1/7/2
f  7/8/3 6/6/3 3/9/3
f  3/9/3 6/6/3 1/7/4
f  7/6/5 3/7/5 8/10/6
f  8/10/6 3/7/5 2/11/6
f  8/10/6 2/11/6 5/12/7
f  5/12/7 2/11/6 4/13/7

