# File produced by Open Asset Import Library (http://www.assimp.sf.net)
# (assimp v3.1.187496374)

mtllib LowWallStucco_20.obj.mtl

# 16 vertex positions
v  0 -2 0.499247
v  9.99997 -2 0.499623
v  0 5 0.499247
v  9.99997 5 0.499623
v  0 -2 -0.5
v  0 5 -0.5
v  10 -2 -0.499462
v  10 5 -0.499462
v  20 -2 0.5
v  20 5 0.5
v  20 -2 -0.498924
v  20 5 -0.498924
v  0 -2 0.5
v  0 5 0.5
v  20 5 -0.5
v  20 -2 -0.5

# 14 UV coordinates
vt 0.251953 0.751953 0
vt 0.498738 0.751953 0
vt 0.251953 0.969826 0
vt 0.498738 0.969826 0
vt 0.251953 0.969878 0
vt 0.498757 0.751953 0
vt 0.498757 0.969878 0
vt 0.498757 0.998047 0
vt 0.251953 0.998047 0
vt 0.498757 0.969826 0
vt 0.449524 0.969826 0
vt 0.449524 0.751953 0
vt 0.301187 0.969826 0
vt 0.301187 0.751953 0

# 5 vertex normals
vn 0 0 1
vn 0 0 -1
vn 0 1 0
vn -1 0 0
vn 1 0 0

# Mesh '_' with 16 faces
g _
usemtl material1_0
f  1/1/1 2/2/1 3/3/1
f  3/3/1 2/2/1 4/4/1
f  5/1/2 6/5/2 7/6/2
f  7/6/2 6/5/2 8/7/2
f  2/1/1 9/2/1 4/3/1
f  4/3/1 9/2/1 10/4/1
f  7/1/2 8/5/2 11/6/2
f  11/6/2 8/5/2 12/7/2
f  4/8/3 8/7/3 3/9/3
f  3/9/3 8/7/3 6/5/3
f  6/10/4 5/6/4 3/11/4
f  3/11/4 5/6/4 1/12/4
f  10/8/3 12/7/3 4/9/3
f  4/9/3 12/7/3 8/5/3
f  10/13/5 9/14/5 12/3/5
f  12/3/5 9/14/5 11/1/5

# Mesh 'collision_wall' with 4 faces
g collision_wall
usemtl material1_0
f  13//1 9//1 10//1
f  13//1 10//1 14//1
f  5//2 6//2 15//2
f  5//2 15//2 16//2

