# File produced by Open Asset Import Library (http://www.assimp.sf.net)
# (assimp v3.1.187496374)

mtllib LowWallStucco_Column.obj.mtl

# 8 vertex positions
v  -0.671571 5.5 -0.671497
v  -0.671571 5.5 0.666667
v  0.666592 5.5 -0.671497
v  0.666592 5.5 0.666667
v  -0.671571 -2 0.666667
v  0.666592 -2 0.666667
v  0.666592 -2 -0.671497
v  -0.671571 -2 -0.671497

# 14 UV coordinates
vt 0.340044 0.997163 0
vt 0.340044 0.964687 0
vt 0.375464 0.997163 0
vt 0.375464 0.964687 0
vt 0.313654 0.751953 0
vt 0.375355 0.751953 0
vt 0.313654 0.968782 0
vt 0.375355 0.968782 0
vt 0.437056 0.751953 0
vt 0.498757 0.751953 0
vt 0.437056 0.968782 0
vt 0.498757 0.968782 0
vt 0.251953 0.751953 0
vt 0.251953 0.968782 0

# 7 vertex normals
vn 0 1 0
vn 0 0 1
vn 0 0 -1
vn -1 0 0
vn -0.993471 0 -0.114084
vn 0.993471 0 -0.114084
vn 1 0 0

# Mesh '_' with 10 faces
g _
usemtl material1_0
f  1/1/1 2/2/1 3/3/1
f  3/3/1 2/2/1 4/4/1
f  5/5/2 6/6/2 2/7/2
f  2/7/2 6/6/2 4/8/2
f  7/9/3 8/10/3 3/11/3
f  3/11/3 8/10/3 1/12/3
f  8/13/4 5/5/5 1/14/4
f  1/14/4 5/5/5 2/7/5
f  6/6/6 7/9/7 4/8/6
f  4/8/6 7/9/7 3/11/7

