# File produced by Open Asset Import Library (http://www.assimp.sf.net)
# (assimp v3.1.187496374)

mtllib LowWallStone_Corner.obj.mtl

# 8 vertex positions
v  0.004789 5.5 0.5
v  0.653079 5.5 -0.202876
v  0 5.5 -0.5
v  1 5.5 0.5
v  0 -2 -0.5
v  0.653079 -2 -0.202876
v  1 -2 0.5
v  0 -2 0.5

# 17 UV coordinates
vt 0.079933 0.994605 0
vt 0.097661 0.960914 0
vt 0.064126 0.960914 0
vt 0.247939 0.977259 0
vt 0.210207 0.977259 0
vt 0.247939 0.501953 0
vt 0.210207 0.501953 0
vt 0.039045 0.977259 0
vt 0.001704 0.977259 0
vt 0.039045 0.501953 0
vt 0.001704 0.501953 0
vt 0.210141 0.501953 0
vt 0.168386 0.501953 0
vt 0.210141 0.977259 0
vt 0.168386 0.977259 0
vt 0.141348 0.501953 0
vt 0.141348 0.977259 0

# 6 vertex normals
vn 0 1 0
vn 0.618236 0 -0.785992
vn 0.695874 0 -0.718164
vn 0.77954 0 -0.626352
vn -0.999997 0.000319 0.002395
vn 0 0 1

# Mesh '_' with 10 faces
g _
usemtl material1_0
f  1/1/1 2/2/1 3/3/1
f  1/1/1 4/2/1 2/3/1
f  3/4/2 2/5/3 5/6/2
f  5/6/2 2/5/3 6/7/3
f  2/8/3 4/9/4 6/10/3
f  6/10/3 4/9/4 7/11/4
f  5/12/5 8/13/5 3/14/5
f  3/14/5 8/13/5 1/15/5
f  7/16/6 4/17/6 8/13/6
f  8/13/6 4/17/6 1/15/6

