# File produced by Open Asset Import Library (http://www.assimp.sf.net)
# (assimp v3.1.187496374)

mtllib pir_m_bld_frt_innerWall_300.obj.mtl

# 37 vertex positions
v  -25 0 300
v  12.5 87.5 300
v  -12.5 87.5 300
v  25 0 300
v  12.5 87.5 0
v  25 0 0.127068
v  -25 0 -0.087948
v  -12.5 87.5 0
v  -25 0 -0.087944
v  12.5 100 75
v  12.5 87.5 75
v  -12.5 100 75
v  -12.5 87.5 75
v  12.5 100 175
v  12.5 87.5 175
v  -12.5 100 175
v  -12.5 87.5 175
v  -12.5 100 275
v  12.5 100 275
v  -12.5 87.5 275
v  12.5 87.5 275
v  -12.5 87.5 225
v  -12.5 100 225
v  -12.5 87.5 125
v  -12.5 100 125
v  -12.5 87.5 25
v  -12.5 100 25
v  -12.5 100 0
v  -12.5 100 300
v  12.5 100 0
v  12.5 100 225
v  12.5 87.5 225
v  12.5 100 125
v  12.5 87.5 125
v  12.5 100 25
v  12.5 87.5 25
v  12.5 100 300

# 48 UV coordinates
vt -1.36 1.66 0
vt -1.36 0.986839 0
vt 5.3 1.66 0
vt 5.31 0.986839 0
vt 5.31 -0.99712 0
vt -1.36 -0.99712 0
vt 3.63 0.986839 0
vt 3.63 -0.99712 0
vt 2.53 0.986839 0
vt 2.53 -0.99712 0
vt 5.82 1.67 0
vt 5.49 1.66 0
vt 5.82 1 0
vt 5.5 0.986981 0
vt 5.5 0.98698 0
vt 6.3 1.01 0
vt 6.3 1.68 0
vt 5.98 1.01 0
vt 5.98 1.68 0
vt 5.49 -0.303491 0
vt 5.78 -0.30945 0
vt 5.78 -0.309451 0
vt 5.98 0.360264 0
vt 6.29 0.360328 0
vt 5.83 3.63 0
vt 5.48 3.63 0
vt 5.81 2.96 0
vt 5.49 2.96 0
vt 6.29 2.34 0
vt 6.29 3.01 0
vt 5.96 2.33 0
vt 5.93 3 0
vt -0.001019 0.986839 0
vt -0.007178 1.66 0
vt -0.487292 0.986839 0
vt -0.488042 1.66 0
vt 2.33 1.66 0
vt 2.33 0.986839 0
vt 3.3 1.66 0
vt 3.29 0.986839 0
vt 0.610265 1.66 0
vt 0.607451 0.986839 0
vt 1.57 1.66 0
vt 1.58 0.986839 0
vt 1.65 1.66 0
vt 1.65 0.986839 0
vt 2.13 1.66 0
vt 2.13 0.986839 0

# 18 vertex normals
vn 0 0 1
vn 0.98995 0.141421 0
vn 0.0043 -0.000838 -0.99999
vn 0 0.001005 -0.999999
vn -0.98995 0.141421 0
vn 0 1 0
vn -0.187366 0.98229 0
vn 0.187366 0.98229 0
vn 0.993559 0.113319 0
vn 0.97817 0.207807 0
vn -0.993559 0.113319 0
vn 0.002867 -0.000224 -0.999996
vn 0.001911 -0.000149 -0.999998
vn 0 0 -1
vn -0.92388 0.382683 0
vn -1 0 0
vn 0.92388 0.382683 0
vn 1 0 0

# Mesh 'collision_wall' with 8 faces
g collision_wall
usemtl material1_0
f  1//1 2//1 3//1
f  1//1 4//1 2//1
f  4//2 5//2 2//2
f  4//2 6//2 5//2
f  6//3 7//3 5//3
f  5//4 7//4 8//4
f  7//5 3//5 8//5
f  7//5 1//5 3//5

# Mesh 'lod_high' with 50 faces
g lod_high
usemtl material1_0
f  3/1/6 2/2/6 8/3/7
f  8/3/7 2/2/6 5/4/8
f  6/5/2 5/4/9 4/6/2
f  4/6/2 5/4/9 2/2/10
f  3/2/5 8/4/11 1/6/5
f  1/6/5 8/4/11 9/5/5
f  3/7/1 1/8/1 2/9/1
f  2/9/1 1/8/1 4/10/1
f  9/10/12 8/9/13 6/8/12
f  6/8/12 8/9/13 5/7/13
f  10/11/14 11/12/14 12/13/14
f  12/13/14 11/12/14 13/14/14
f  14/11/14 15/12/14 16/13/14
f  16/13/14 15/12/14 17/15/14
f  18/16/14 19/17/14 20/18/14
f  20/18/14 19/17/14 21/19/14
f  22/20/15 23/21/16 17/15/15
f  17/15/15 23/21/16 16/13/16
f  24/20/15 25/22/16 13/14/15
f  13/14/15 25/22/16 12/13/16
f  26/23/15 27/24/16 8/18/11
f  8/18/11 27/24/16 28/16/16
f  18/16/16 20/18/15 29/24/16
f  29/24/16 20/18/15 3/23/15
f  30/17/14 5/19/13 28/16/14
f  28/16/14 5/19/13 8/18/13
f  23/25/1 22/26/1 31/27/1
f  31/27/1 22/26/1 32/28/1
f  25/25/1 24/26/1 33/27/1
f  33/27/1 24/26/1 34/28/1
f  35/29/1 27/30/1 36/31/1
f  36/31/1 27/30/1 26/32/1
f  11/12/17 10/11/18 34/28/17
f  34/28/17 10/11/18 33/27/18
f  15/12/17 14/11/18 32/28/17
f  32/28/17 14/11/18 31/27/18
f  21/19/17 19/17/18 2/31/10
f  2/31/10 19/17/18 37/29/18
f  35/29/18 36/31/17 30/17/18
f  30/17/18 36/31/17 5/19/9
f  19/33/6 18/34/6 37/35/6
f  37/35/6 18/34/6 29/36/6
f  23/37/6 31/38/6 16/39/6
f  16/39/6 31/38/6 14/40/6
f  25/41/6 33/42/6 12/43/6
f  12/43/6 33/42/6 10/44/6
f  27/45/6 35/46/6 28/47/6
f  28/47/6 35/46/6 30/48/6
f  29/30/1 3/32/1 37/29/1
f  37/29/1 3/32/1 2/31/1

