# File produced by Open Asset Import Library (http://www.assimp.sf.net)
# (assimp v3.1.187496374)

mtllib pir_m_bld_frt_innerWall_100.obj.mtl

# 9 vertex positions
v  -25 0 100
v  12.5 87.5 100
v  -12.5 87.5 100
v  25 0 100
v  12.5 87.5 0
v  25 0 0.127068
v  -25 0 -0.087948
v  -12.5 87.5 0
v  -25 0 -0.087944

# 11 UV coordinates
vt 1.36 -0.660856 0
vt 1.36 1.37 0
vt -0.361045 -0.660856 0
vt -0.361045 1.37 0
vt 0.175646 1.37 0
vt -0.148708 -0.663582 0
vt 0.824354 1.37 0
vt 1.15 -0.663582 0
vt -0.362444 1.37 0
vt -0.362444 0.623198 0
vt 1.36 0.623198 0

# 7 vertex normals
vn 0 0 1
vn 0.98995 0.141421 0
vn 0.0043 -0.000838 -0.99999
vn 0 0.001005 -0.999999
vn -0.98995 0.141421 0
vn 0.002867 -0.000224 -0.999996
vn 0 1 0

# Mesh 'wall_01' with 8 faces
g wall_01
usemtl material1_0
f  1//1 2//1 3//1
f  1//1 4//1 2//1
f  4//2 5//2 2//2
f  4//2 6//2 5//2
f  6//3 7//3 5//3
f  5//4 7//4 8//4
f  7//5 3//5 8//5
f  7//5 1//5 3//5

# Mesh '_' with 10 faces
g _
usemtl material1_0
f  6/1/2 5/2/2 4/3/2
f  4/3/2 5/2/2 2/4/2
f  3/5/1 1/6/1 2/7/1
f  2/7/1 1/6/1 4/8/1
f  1/3/5 3/4/5 9/1/5
f  9/1/5 3/4/5 8/2/5
f  9/6/6 8/5/6 6/8/6
f  6/8/6 8/5/6 5/7/6
f  3/9/7 2/10/7 8/2/7
f  8/2/7 2/10/7 5/11/7

