# File produced by Open Asset Import Library (http://www.assimp.sf.net)
# (assimp v3.1.187496374)

mtllib pir_m_bld_frt_innerWall_gate.obj.mtl

# 85 vertex positions
v  50 0 10
v  50 49 -5
v  50 49 5
v  50 0 -10
v  -50 0 -9.99999
v  -50 49 5
v  -50 49 -5
v  -50 0 9.99999
v  -15 49 5
v  -15 0 9.99999
v  -15 24.5 7.5
v  15 49 5
v  15 24.5 7.5
v  15 0 9.99999
v  15 24.5 0.833334
v  15 0 0.833334
v  -15 0 0.833334
v  -15 24.5 0.833334
v  -50 0 10
v  -50 0 -10
v  15 0 -10
v  15 24.5 -7.5
v  0 49 -5
v  0 34.3 -6.5
v  -15 24.5 -7.5
v  -15 0 -10
v  -15 0 10
v  0 49 5
v  0 34.3 6.5
v  15 0 10
v  -9.27308 30.8678 6.85299
v  -9.27308 30.8678 -6.85299
v  9.27308 30.8678 6.85299
v  9.27308 30.8678 -6.85299
v  -11.25 0 0.833334
v  -11.25 0 -0.833334
v  -11.25 25.1144 0.833334
v  -11.25 25.1144 -0.833334
v  11.25 0 -0.833334
v  11.25 0 0.833334
v  11.25 25.1144 -0.833334
v  11.25 25.1144 0.833334
v  0 25.1144 0.833334
v  0 25.1144 -0.833334
v  15 25.1144 0.833334
v  -11.25 34.3 0.833334
v  0 34.3 0.833334
v  11.25 34.3 0.833334
v  15 34.3 0.833334
v  -15 25.1144 0.833334
v  -15 34.3 0.833334
v  0 20.7166 8.21496
v  17.4468 21.4233 8.14285
v  0 35.0699 6.75035
v  17.2834 35.0699 6.75035
v  -17.4468 21.4233 8.14285
v  -17.2834 35.0699 6.75035
v  13.5964 10.6782 9.23928
v  17.372 10.6782 9.23928
v  13.5964 21.4233 8.14285
v  17.372 21.4233 8.14285
v  13.5964 -0.066947 10.3357
v  17.372 -0.066947 10.3357
v  -13.6398 10.6782 9.23928
v  -13.6398 21.4233 8.14285
v  -17.372 10.6782 9.23928
v  -17.372 21.4233 8.14285
v  -13.6398 -0.066948 10.3357
v  -17.372 -0.066948 10.3357
v  -15 0 -0.416667
v  15 0 -0.416667
v  -15 29.3989 -0.416667
v  15 29.3989 -0.416667
v  -11.25 25.1144 -0.416667
v  0 25.1144 -0.416667
v  -11.25 0 -0.416667
v  0 0 -0.416667
v  0 25.1144 0.416667
v  -11.25 25.1144 0.416667
v  0 0 0.416667
v  -11.25 0 0.416667
v  11.25 25.1144 0.416667
v  11.25 0 0.416667
v  11.25 25.1144 -0.416667
v  11.25 0 -0.416667

# 49 UV coordinates
vt -0.020759 0 0
vt -0.130787 1.27 0
vt -0.460874 0 0
vt -0.350846 1.27 0
vt 2 0 0
vt 1.3 0 0
vt 2 1.27 0
vt 1.3 0.633796 0
vt 1 1.27 0
vt 1 0.887314 0
vt 0 1.27 0
vt 0.7 0.633796 0
vt 0 0 0
vt 0.7 0 0
vt 2 1.5 0
vt 1 1.5 0
vt 0 1.5 0
vt 0.797959 0 0
vt 1.2 0 0
vt 0.797959 0.633796 0
vt 1.2 0.633796 0
vt 0.797959 0.950694 0
vt 1.2 0.950694 0
vt 0.797959 1.27 0
vt 1.2 1.27 0
vt 0.501953 0.593444 0
vt 0.501953 0.91712 0
vt 0.622101 0.91712 0
vt 0.560374 0.91712 0
vt 0.560374 0.593444 0
vt 0.501953 0.723575 0
vt 0.622101 0.723575 0
vt 0.560374 0.723575 0
vt 0.505829 0.516278 0
vt 0.996094 0.561968 0
vt 0.505829 0.963481 0
vt 0.996094 0.963481 0
vt 0.378242 0.597615 0
vt 0.496094 0.597615 0
vt 0.378242 0.996094 0
vt 0.496094 0.996094 0
vt 0.378242 0.503906 0
vt 0.496094 0.503906 0
vt 0.378242 0.918604 0
vt 0.496094 0.918604 0
vt 0.501953 0.501953 0
vt 0.623047 0.501953 0
vt 0.501953 0.998047 0
vt 0.623047 0.998047 0

# 13 vertex normals
vn 1 0 0
vn -1 -0 -0
vn 0 0.101513 0.994834
vn 0 0.101514 0.994834
vn 0 -1 0
vn 0 0 1
vn 0 0.101514 -0.994834
vn 0 1 0
vn 0.899989 -0.435913 0
vn 0.561678 -0.827356 0
vn -0.561678 -0.827356 -0
vn -0.899989 -0.435913 -0
vn 0 0 -1

# Mesh 'wall_01' with 18 faces
g wall_01
usemtl material2_0
f  1//1 2//1 3//1
f  1//1 4//1 2//1
f  5//2 6//2 7//2
f  5//2 8//2 6//2
f  8//3 9//3 6//3
f  8//3 10//3 9//3
f  11//4 12//4 9//3
f  11//4 13//4 12//4
f  14//4 3//4 12//4
f  14//4 1//4 3//4
f  14//2 15//2 16//2
f  14//2 13//2 15//2
f  11//1 17//1 18//1
f  11//1 10//1 17//1
f  11//5 15//5 13//5
f  11//5 18//5 15//5
f  18//6 16//6 15//6
f  18//6 17//6 16//6

# Mesh 'lod_high' with 36 faces
g lod_high
usemtl material2_0
f  19/1/2 6/2/2 20/3/2
f  20/3/2 6/2/2 7/4/2
f  3/4/1 1/3/1 2/2/1
f  2/2/1 1/3/1 4/1/1
f  4/5/7 21/6/7 2/7/7
f  2/7/7 21/6/7 22/8/7
f  2/7/7 22/8/7 23/9/7
f  23/9/7 22/8/7 24/10/7
f  23/9/7 24/10/7 7/11/7
f  7/11/7 24/10/7 25/12/7
f  7/11/7 25/12/7 20/13/7
f  20/13/7 25/12/7 26/14/7
f  19/13/4 27/14/4 6/11/4
f  6/11/4 27/14/4 11/12/4
f  6/11/4 11/12/4 28/9/4
f  28/9/4 11/12/4 29/10/4
f  28/9/4 29/10/4 3/7/4
f  3/7/4 29/10/4 13/8/4
f  3/7/4 13/8/4 1/5/4
f  1/5/4 13/8/4 30/6/4
f  7/7/8 6/15/8 23/9/8
f  23/9/8 6/15/8 28/16/8
f  23/9/8 28/16/8 2/11/8
f  2/11/8 28/16/8 3/17/8
f  27/18/1 26/19/1 11/20/9
f  11/20/9 26/19/1 25/21/9
f  11/20/9 25/21/9 31/22/10
f  31/22/10 25/21/9 32/23/10
f  31/22/10 32/23/10 29/24/5
f  29/24/5 32/23/10 24/25/5
f  29/24/5 24/25/5 33/22/11
f  33/22/11 24/25/5 34/23/11
f  33/22/11 34/23/11 13/20/12
f  13/20/12 34/23/11 22/21/12
f  13/20/12 22/21/12 30/18/2
f  30/18/2 22/21/12 21/19/2

# Mesh 'lod_high' with 20 faces
g lod_high
usemtl JoinedMaterial_#5
f  35/26/1 36/26/1 37/27/1
f  37/27/1 36/26/1 38/27/1
f  39/26/2 40/26/2 41/27/2
f  41/27/2 40/26/2 42/27/2
f  37/27/5 38/27/5 43/28/5
f  43/28/5 38/27/5 44/28/5
f  43/28/5 44/28/5 42/27/5
f  42/27/5 44/28/5 41/27/5
f  45/29/6 42/27/6 16/30/6
f  16/30/6 42/27/6 40/26/6
f  46/31/6 37/27/6 47/32/6
f  47/32/6 37/27/6 43/28/6
f  47/32/6 43/28/6 48/31/6
f  48/31/6 43/28/6 42/27/6
f  48/31/6 42/27/6 49/33/6
f  49/33/6 42/27/6 45/29/6
f  17/30/6 35/26/6 50/29/6
f  50/29/6 35/26/6 37/27/6
f  50/29/6 37/27/6 51/33/6
f  51/33/6 37/27/6 46/31/6

# Mesh 'arch_1' with 12 faces
g arch_1
usemtl material5_0
f  52/34/3 53/35/3 54/36/3
f  54/36/3 53/35/3 55/37/3
f  52/34/3 54/36/3 56/35/3
f  56/35/3 54/36/3 57/37/3
f  58/38/3 59/39/3 60/40/3
f  60/40/3 59/39/3 61/41/3
f  62/42/3 63/43/3 58/44/3
f  58/44/3 63/43/3 59/45/3
f  64/38/3 65/40/3 66/39/3
f  66/39/3 65/40/3 67/41/3
f  68/42/3 64/44/3 69/43/3
f  69/43/3 64/44/3 66/45/3

# Mesh 'door_hole' with 2 faces
g door_hole
usemtl JoinedMaterial_#5
f  70/46/6 71/47/6 72/48/6
f  72/48/6 71/47/6 73/49/6

# Mesh 'door_left' with 10 faces
g door_left
usemtl JoinedMaterial_#5
f  74/48/13 75/49/13 76/46/13
f  76/46/13 75/49/13 77/47/13
f  78/49/6 79/48/6 80/47/6
f  80/47/6 79/48/6 81/46/6
f  81/46/2 79/48/2 76/46/2
f  76/46/2 79/48/2 74/48/2
f  79/46/8 78/47/8 74/46/8
f  74/46/8 78/47/8 75/47/8
f  75/48/1 78/48/1 77/46/1
f  77/46/1 78/48/1 80/46/1

# Mesh 'door_right' with 10 faces
g door_right
usemtl JoinedMaterial_#5
f  82/48/6 78/49/6 83/46/6
f  83/46/6 78/49/6 80/47/6
f  75/49/13 84/48/13 77/47/13
f  77/47/13 84/48/13 85/46/13
f  85/46/1 84/48/1 83/46/1
f  83/46/1 84/48/1 82/48/1
f  84/46/8 75/47/8 82/46/8
f  82/46/8 75/47/8 78/47/8
f  78/48/2 75/48/2 80/46/2
f  80/46/2 75/48/2 77/46/2

