# File produced by Open Asset Import Library (http://www.assimp.sf.net)
# (assimp v3.1.187496374)

mtllib sign1_shanty_a_frame.obj.mtl

# 94 vertex positions
v  -0.322585 -0.281081 -5.9909
v  -0.322585 0.153582 -5.92269
v  0.322585 -0.281081 -5.9909
v  0.322585 0.153582 -5.92269
v  -0.322585 0.250687 0
v  0.322585 0.250687 0
v  -0.322585 0.250687 -3.63097
v  0.322585 0.250687 -3.61165
v  0.322585 -0.183975 -3.46464
v  0.322585 -0.183976 0
v  -0.322585 -0.183976 -3.48396
v  -0.322585 -0.183976 0
v  -0.237254 -0.183975 -1.89674
v  0.237255 -0.183975 -1.89674
v  -0.237254 -1.72819 0
v  0.237255 -1.72819 0
v  -0.237254 -1.42234 0
v  0.237255 -1.42234 0
v  -0.237254 -0.183975 -1.56467
v  0.237255 -0.183975 -1.56467
v  0.055578 -5.10714 -1.96913
v  0.055578 -4.32493 -1.96913
v  -0.086271 -5.10714 -1.96913
v  -0.086271 -4.32493 -1.96913
v  0.055578 -5.02894 -5.54003
v  -0.086271 -5.02894 -5.54003
v  0.055578 -4.32493 -5.54003
v  -0.086271 -4.32493 -5.54003
v  -0.086271 -4.32493 -2.07164
v  0.055578 -4.32493 -2.07164
v  -0.086271 -2.98202 -2.07165
v  0.055578 -2.98202 -2.07165
v  0.055578 -4.32493 -5.66927
v  -0.086271 -4.32493 -5.66927
v  0.055578 -2.88685 -5.71924
v  -0.086271 -2.88685 -5.71924
v  -0.086271 -2.88685 -5.54003
v  0.055578 -2.88685 -5.54003
v  -0.086271 -2.98202 -2.01106
v  0.055578 -2.98202 -2.01106
v  -0.086271 -0.995258 -5.5277
v  -0.086271 -1.00381 -2.03216
v  0.055578 -0.995258 -5.5277
v  0.055578 -1.00381 -2.03216
v  -0.086271 -5.10714 -2.07164
v  0.055578 -5.10714 -2.07164
v  -0.086271 -1.14934 -1.97288
v  0.055578 -1.15979 -1.97384
v  -0.086271 -1.41426 -5.54003
v  0.055578 -1.41426 -5.54003
v  -0.086271 -1.39015 -2.03375
v  -0.086271 -1.39015 -1.91486
v  0.055578 -1.39015 -2.03375
v  0.055578 -1.39015 -1.91486
v  -0.037699 -0.630528 -2.81348
v  0.071622 -0.630528 -2.81348
v  -0.037699 -0.343162 -2.81348
v  0.071622 -0.343162 -2.81348
v  0.016962 -0.415229 -2.74294
v  0.016962 -0.415229 -2.88402
v  0.016962 -0.127863 -2.74294
v  0.016962 -0.127863 -2.88402
v  -0.037699 -0.630528 -4.68823
v  0.071622 -0.630528 -4.68823
v  -0.037699 -0.343162 -4.68823
v  0.071622 -0.343162 -4.68823
v  0.016962 -0.415229 -4.6177
v  0.016962 -0.415229 -4.75877
v  0.016962 -0.127863 -4.6177
v  0.016962 -0.127863 -4.75877
v  -0.037699 -1.04242 -2.81348
v  0.071622 -1.04242 -2.81348
v  -0.037699 -0.755058 -2.81348
v  0.071622 -0.755058 -2.81348
v  0.016962 -0.827125 -2.74294
v  0.016962 -0.827125 -2.88402
v  0.016962 -0.539759 -2.74294
v  0.016962 -0.539759 -2.88402
v  -0.037699 -1.04242 -4.68823
v  0.071622 -1.04242 -4.68823
v  -0.037699 -0.755058 -4.68823
v  0.071622 -0.755058 -4.68823
v  0.016962 -0.827125 -4.6177
v  0.016962 -0.827125 -4.75877
v  0.016962 -0.539759 -4.6177
v  0.016962 -0.539759 -4.75877
v  -0.374015 1.53211 -6.40481
v  0.390581 1.53211 -6.40481
v  0.390581 -5.53827 -6.40481
v  -0.374015 -5.53827 -6.40481
v  0.390581 -5.53827 0.14062
v  0.390581 1.53211 0.14062
v  -0.374015 -5.53827 0.14062
v  -0.374015 1.53211 0.14062

# 55 UV coordinates
vt 0.392279 0.333743 0
vt 0.444997 0.333743 0
vt 0.392279 0.415506 0
vt 0.444997 0.415506 0
vt 0.392279 0.227084 0
vt 0.444997 0.227084 0
vt 0.348191 0.226563 0
vt 0.389574 0.226563 0
vt 0.348191 0.416069 0
vt 0.389574 0.416069 0
vt 0.385504 0.189802 0
vt 0.385504 0.173277 0
vt 0.364497 0.189802 0
vt 0.364497 0.173277 0
vt 0.364497 0.144907 0
vt 0.385504 0.144907 0
vt 0.385504 0.142897 0
vt 0.364497 0.142897 0
vt 0.254707 0.166408 0
vt 0.421181 0.166408 0
vt 0.254706 0.171913 0
vt 0.421182 0.171913 0
vt 0.418067 0.166408 0
vt 0.418068 0.171913 0
vt 0.364497 0.106191 0
vt 0.385504 0.106412 0
vt 0.364497 0.101354 0
vt 0.385504 0.101354 0
vt 0.498047 0.222657 0
vt 0.498047 0.113669 0
vt 0.259018 0.222657 0
vt 0.259018 0.101563 0
vt 0.251953 0.222657 0
vt 0.251953 0.101563 0
vt 0.364497 0.111788 0
vt 0.385504 0.111788 0
vt 0.259916 0.222136 0
vt 0.49721 0.222657 0
vt 0.260024 0.198588 0
vt 0.498047 0.197118 0
vt 0.262596 0.101563 0
vt 0.251953 0.198588 0
vt 0.258483 0.101563 0
vt 0.255892 0.213266 0
vt 0.498047 0.107363 0
vt 0.255957 0.212629 0
vt 0.498047 0.101563 0
vt 0.498047 0.214644 0
vt 0.264044 0.101563 0
vt 0.264044 0.222657 0
vt 0.255324 0.101563 0
vt 0.980469 0.214844 0
vt 0.996094 0.214844 0
vt 0.980469 0.246094 0
vt 0.996094 0.246094 0

# 23 vertex normals
vn 0 0.155033 -0.987909
vn 0.000408 0.746072 -0.665865
vn 0 1 0
vn 0.000316 0.999778 -0.021083
vn 1 0 0
vn -1 0 0
vn 0 -1 0
vn -0.000288 -0.999814 0.019282
vn -0.000576 -0.999256 0.038557
vn 0 -0.775491 -0.631359
vn 0 0.784126 0.620601
vn 0 0 1
vn -0 -0 -1
vn 0 -0.034728 -0.999397
vn 0 0.999997 0.002446
vn 0.010013 0.82494 0.565131
vn 0 -0.999936 -0.011271
vn 0 -0.999746 -0.022541
vn 0.014373 0.302773 0.952954
vn 0 0.029419 -0.999567
vn 0 0.014711 -0.999892
vn 0 -0.060318 0.998179
vn 0.006148 0.091376 0.995798

# Mesh 'sign1_shanty_a' with 90 faces
g sign1_shanty_a
usemtl material3_0
f  1/1/1 2/2/2 3/3/1
f  3/3/1 2/2/2 4/4/2
f  5/5/3 6/6/3 7/1/4
f  7/1/4 6/6/3 8/2/4
f  7/1/4 8/2/4 2/3/2
f  2/3/2 8/2/4 4/4/2
f  3/5/5 4/6/5 9/1/5
f  9/1/5 4/6/5 8/2/5
f  9/1/5 8/2/5 10/3/5
f  10/3/5 8/2/5 6/4/5
f  2/5/6 1/6/6 7/1/6
f  7/1/6 1/6/6 11/2/6
f  7/1/6 11/2/6 5/3/6
f  5/3/6 11/2/6 12/4/6
f  10/4/7 12/3/7 9/2/8
f  9/2/8 12/3/7 11/1/8
f  9/2/8 11/1/8 3/6/9
f  3/6/9 11/1/8 1/5/9
f  13/7/10 14/8/10 15/9/10
f  15/9/10 14/8/10 16/10/10
f  17/9/11 18/10/11 19/7/11
f  19/7/11 18/10/11 20/8/11
f  14/7/5 20/8/5 16/9/5
f  16/9/5 20/8/5 18/10/5
f  19/7/6 13/8/6 17/9/6
f  17/9/6 13/8/6 15/10/6
f  21/11/12 22/12/12 23/13/12
f  23/13/12 22/12/12 24/14/12
f  25/11/13 26/13/13 27/12/13
f  27/12/13 26/13/13 28/14/13
f  29/14/12 30/12/12 31/15/12
f  31/15/12 30/12/12 32/16/12
f  33/12/14 34/14/14 35/17/14
f  35/17/14 34/14/14 36/18/14
f  27/12/7 28/14/7 33/12/7
f  33/12/7 28/14/7 34/14/7
f  37/18/3 38/17/3 36/18/3
f  36/18/3 38/17/3 35/17/3
f  31/15/7 32/16/7 39/15/7
f  39/15/7 32/16/7 40/16/7
f  30/12/3 29/14/3 22/12/3
f  22/12/3 29/14/3 24/14/3
f  41/19/15 42/20/16 43/21/15
f  43/21/15 42/20/16 44/22/16
f  45/23/17 26/19/18 46/24/17
f  46/24/17 26/19/18 25/21/18
f  45/13/17 46/11/17 23/13/7
f  23/13/7 46/11/17 21/11/7
f  47/25/19 48/26/19 42/27/16
f  42/27/16 48/26/19 44/28/16
f  28/29/6 26/30/6 29/31/6
f  29/31/6 26/30/6 45/32/6
f  29/31/6 45/32/6 24/33/6
f  24/33/6 45/32/6 23/34/6
f  25/30/5 27/29/5 46/32/5
f  46/32/5 27/29/5 30/31/5
f  46/32/5 30/31/5 21/34/5
f  21/34/5 30/31/5 22/33/5
f  41/27/20 43/28/20 49/35/21
f  49/35/21 43/28/20 50/36/21
f  49/35/21 50/36/21 37/18/13
f  37/18/13 50/36/21 38/17/13
f  42/37/6 41/38/6 51/39/6
f  51/39/6 41/38/6 49/40/6
f  51/39/6 49/40/6 31/41/6
f  52/42/6 42/37/6 51/39/6
f  52/42/6 51/39/6 39/43/6
f  39/43/6 51/39/6 31/41/6
f  47/44/6 42/37/6 52/42/6
f  31/41/6 49/40/6 37/45/6
f  43/38/5 44/37/5 50/40/5
f  50/40/5 44/37/5 53/39/5
f  50/40/5 53/39/5 38/45/5
f  44/37/5 48/46/5 53/39/5
f  38/45/5 53/39/5 32/41/5
f  53/39/5 48/46/5 54/42/5
f  53/39/5 54/42/5 32/41/5
f  32/41/5 54/42/5 40/43/5
f  39/43/22 40/43/22 52/42/23
f  52/42/23 40/43/22 54/42/23
f  52/42/23 54/42/23 47/44/19
f  47/44/19 54/42/23 48/46/19
f  29/47/6 31/48/6 28/49/6
f  28/49/6 31/48/6 37/50/6
f  28/49/6 37/50/6 34/51/6
f  34/51/6 37/50/6 36/33/6
f  32/48/5 30/47/5 38/50/5
f  38/50/5 30/47/5 27/49/5
f  38/50/5 27/49/5 35/33/5
f  35/33/5 27/49/5 33/51/5

# Mesh 'chain4' with 8 faces
g chain4
usemtl JoinedMaterial_#4
f  55/52/12 56/53/12 57/54/12
f  57/54/12 56/53/12 58/55/12
f  55/52/13 57/54/13 56/53/13
f  56/53/13 57/54/13 58/55/13
f  59/52/5 60/53/5 61/54/5
f  61/54/5 60/53/5 62/55/5
f  59/52/6 61/54/6 60/53/6
f  60/53/6 61/54/6 62/55/6

# Mesh 'chain5' with 8 faces
g chain5
usemtl JoinedMaterial_#4
f  63/52/12 64/53/12 65/54/12
f  65/54/12 64/53/12 66/55/12
f  63/52/13 65/54/13 64/53/13
f  64/53/13 65/54/13 66/55/13
f  67/52/5 68/53/5 69/54/5
f  69/54/5 68/53/5 70/55/5
f  67/52/6 69/54/6 68/53/6
f  68/53/6 69/54/6 70/55/6

# Mesh 'chain6' with 8 faces
g chain6
usemtl JoinedMaterial_#4
f  71/52/12 72/53/12 73/54/12
f  73/54/12 72/53/12 74/55/12
f  71/52/13 73/54/13 72/53/13
f  72/53/13 73/54/13 74/55/13
f  75/52/5 76/53/5 77/54/5
f  77/54/5 76/53/5 78/55/5
f  75/52/6 77/54/6 76/53/6
f  76/53/6 77/54/6 78/55/6

# Mesh 'chain7' with 8 faces
g chain7
usemtl JoinedMaterial_#4
f  79/52/12 80/53/12 81/54/12
f  81/54/12 80/53/12 82/55/12
f  79/52/13 81/54/13 80/53/13
f  80/53/13 81/54/13 82/55/13
f  83/52/5 84/53/5 85/54/5
f  85/54/5 84/53/5 86/55/5
f  83/52/6 85/54/6 84/53/6
f  84/53/6 85/54/6 86/55/6

# Mesh 'collision_camera' with 6 faces
g collision_camera
usemtl material3_0
f  87//13 88//13 89//13
f  87//13 89//13 90//13
f  91//5 89//5 88//5
f  91//5 88//5 92//5
f  90//6 93//6 94//6
f  90//6 94//6 87//6

