# File produced by Open Asset Import Library (http://www.assimp.sf.net)
# (assimp v3.1.187496374)

mtllib sign1_shanty_a_icon_tavern.obj.mtl

# 40 vertex positions
v  0.062582 -3.48885 -3.12267
v  0.065401 -3.22645 -3.15159
v  0.068757 -2.98179 -2.75042
v  0.07061 -2.82206 -2.73104
v  0.070377 -2.82379 -2.55006
v  0.068569 -3.03924 -2.56449
v  0.072237 -2.60911 -2.58453
v  0.073748 -2.42176 -2.69374
v  0.072223 -2.6225 -2.773
v  0.074685 -2.29445 -2.8774
v  0.073801 -2.48092 -3.17441
v  0.073768 -2.47345 -2.91795
v  0.075316 -2.274 -3.00818
v  0.07561 -2.26912 -3.18645
v  -0.097103 -2.81964 -2.73046
v  -0.097337 -2.82137 -2.54947
v  -0.09549 -2.62007 -2.77241
v  -0.095476 -2.60669 -2.58394
v  -0.092397 -2.27158 -2.98548
v  -0.093945 -2.47103 -2.91736
v  -0.093965 -2.41934 -2.69315
v  -0.093028 -2.30088 -2.87681
v  -0.098956 -2.97937 -2.74983
v  -0.099144 -3.03682 -2.5639
v  -0.102312 -3.22402 -3.151
v  -0.105131 -3.48643 -3.12208
v  -0.093912 -2.4785 -3.17382
v  -0.092103 -2.2667 -3.18586
v  -0.098706 -1.70881 -4.64773
v  -0.098706 -4.54538 -4.64773
v  -0.098706 -1.70881 -3.79909
v  -0.098706 -4.54538 -3.79909
v  -0.098706 -1.70881 -2.95046
v  -0.098706 -4.54538 -2.95046
v  0.068014 -4.54538 -4.64773
v  0.068014 -1.70881 -4.64773
v  0.068014 -4.54538 -3.79909
v  0.068014 -1.70881 -3.79909
v  0.068014 -4.54538 -2.95046
v  0.068014 -1.70881 -2.95046

# 18 UV coordinates
vt 0.8843 0.028474 0
vt 0.884657 0.042264 0
vt 0.877404 0.059105 0
vt 0.877399 0.068303 0
vt 0.871365 0.068708 0
vt 0.871365 0.060916 0
vt 0.871365 0.076569 0
vt 0.874926 0.083443 0
vt 0.877394 0.076137 0
vt 0.877386 0.088192 0
vt 0.884607 0.08343 0
vt 0.881878 0.083434 0
vt 0.879463 0.092202 0
vt 0.884612 0.092289 0
vt 0.856527 0.120592 0
vt 0.856527 0.00541198 0
vt 0.907955 0.120592 0
vt 0.907955 0.00541198 0

# 8 vertex normals
vn 0.999944 -0.010492 -0.00161
vn 0.999959 -0.009044 -0.00018
vn 0.99997 -0.007596 0.001249
vn -0.999959 0.009103 0.000199
vn -0.99997 0.007714 -0.001212
vn -0.999944 0.010493 0.00161
vn -1 0 0
vn 1 0 0

# Mesh 'icons' with 32 faces
g icons
usemtl material1_0
f  1/1/1 2/2/1 3/3/1
f  3/3/1 4/4/2 5/5/2
f  5/5/2 1/1/1 3/3/1
f  6/6/1 1/1/1 5/5/2
f  7/7/3 5/5/2 8/8/3
f  8/8/3 5/5/2 4/4/2
f  4/4/2 9/9/3 8/8/3
f  10/10/3 8/8/3 11/11/3
f  8/8/3 9/9/3 12/12/3
f  11/11/3 13/13/3 10/10/3
f  14/14/3 13/13/3 11/11/3
f  11/11/3 8/8/3 12/12/3
f  15/4/4 16/5/4 17/9/5
f  17/9/5 16/5/4 18/7/5
f  17/9/5 19/13/5 20/12/5
f  18/7/5 21/8/5 17/9/5
f  17/9/5 21/8/5 22/10/5
f  15/4/4 23/3/6 16/5/4
f  16/5/4 23/3/6 24/6/6
f  25/2/6 26/1/6 23/3/6
f  23/3/6 26/1/6 24/6/6
f  22/10/5 19/13/5 17/9/5
f  19/13/5 27/11/5 20/12/5
f  28/14/5 27/11/5 19/13/5
f  29/15/7 30/16/7 31/17/7
f  31/17/7 30/16/7 32/18/7
f  31/17/7 32/18/7 33/15/7
f  33/15/7 32/18/7 34/16/7
f  35/16/8 36/15/8 37/18/8
f  37/18/8 36/15/8 38/17/8
f  37/18/8 38/17/8 39/16/8
f  39/16/8 38/17/8 40/15/8

